<svg width="60" height="40" viewBox="0 0 60 40" fill="none" xmlns="http://www.w3.org/2000/svg">
<path d="M58 22C59.1046 22 60 21.1046 60 20C60 18.8954 59.1046 18 58 18L58 22ZM0.585785 18.5858C-0.195263 19.3668 -0.195263 20.6332 0.585785 21.4142L13.3137 34.1421C14.0948 34.9232 15.3611 34.9232 16.1421 34.1421C16.9232 33.3611 16.9232 32.0948 16.1421 31.3137L4.82843 20L16.1421 8.6863C16.9232 7.90525 16.9232 6.63892 16.1421 5.85787C15.3611 5.07682 14.0948 5.07682 13.3137 5.85787L0.585785 18.5858ZM58 18L2 18L2 22L58 22L58 18Z" fill="#373B3D"/>
</svg>
