<svg width="41" height="40" viewBox="0 0 41 40" fill="none" xmlns="http://www.w3.org/2000/svg">
<path d="M37.1107 14.6327L9.10266 0.628718C7.99733 0.0785786 6.74922 -0.117275 5.52851 0.0678607C4.30779 0.252996 3.17388 0.81011 2.28137 1.66325C1.38886 2.51638 0.781181 3.62402 0.541192 4.83514C0.301203 6.04627 0.440581 7.30194 0.940321 8.43095L5.7417 19.174C5.85064 19.4338 5.90675 19.7126 5.90675 19.9943C5.90675 20.2759 5.85064 20.5548 5.7417 20.8145L0.940321 31.5576C0.533605 32.4713 0.361667 33.4721 0.440132 34.4692C0.518597 35.4662 0.844978 36.4278 1.38961 37.2666C1.93425 38.1054 2.67987 38.7949 3.55872 39.2722C4.43756 39.7496 5.42177 39.9998 6.42189 40C7.35862 39.9907 8.2814 39.7719 9.12267 39.3598L37.1307 25.3558C38.1242 24.856 38.9593 24.0901 39.5428 23.1433C40.1263 22.1966 40.4353 21.1064 40.4353 19.9943C40.4353 18.8822 40.1263 17.7919 39.5428 16.8452C38.9593 15.8985 38.1242 15.1325 37.1307 14.6327H37.1107ZM35.3302 21.7748L7.32215 35.7788C6.95437 35.9554 6.54139 36.0153 6.13858 35.9505C5.73578 35.8858 5.36241 35.6994 5.06853 35.4164C4.77465 35.1334 4.57432 34.7673 4.4944 34.3672C4.41448 33.9672 4.45878 33.5522 4.62138 33.178L9.40275 22.435C9.46464 22.2915 9.51808 22.1446 9.56279 21.9948H23.3467C23.8773 21.9948 24.3862 21.7841 24.7614 21.4089C25.1365 21.0337 25.3473 20.5249 25.3473 19.9943C25.3473 19.4637 25.1365 18.9548 24.7614 18.5797C24.3862 18.2045 23.8773 17.9937 23.3467 17.9937H9.56279C9.51808 17.844 9.46464 17.697 9.40275 17.5536L4.62138 6.81049C4.45878 6.43631 4.41448 6.02136 4.4944 5.62129C4.57432 5.22121 4.77465 4.85514 5.06853 4.57214C5.36241 4.28915 5.73578 4.10277 6.13858 4.038C6.54139 3.97323 6.95437 4.03315 7.32215 4.20974L35.3302 18.2138C35.6579 18.3816 35.9329 18.6367 36.1249 18.9509C36.317 19.265 36.4186 19.6261 36.4186 19.9943C36.4186 20.3625 36.317 20.7235 36.1249 21.0377C35.9329 21.3518 35.6579 21.6069 35.3302 21.7748Z" fill="#153243"/>
</svg>
