<svg width="41" height="41" viewBox="0 0 41 41" fill="none" xmlns="http://www.w3.org/2000/svg">
<path d="M30.8641 0.14209H9.61411C4.43644 0.14209 0.239105 4.33942 0.239105 9.51709V30.7671C0.239105 35.9448 4.43644 40.1421 9.61411 40.1421H30.8641C36.0418 40.1421 40.2391 35.9448 40.2391 30.7671V9.51709C40.2391 4.33942 36.0418 0.14209 30.8641 0.14209Z" fill="#F9FBF2"/>
<path d="M30.8641 0.14209H9.61411C4.43644 0.14209 0.239105 4.33942 0.239105 9.51709V30.7671C0.239105 35.9448 4.43644 40.1421 9.61411 40.1421H30.8641C36.0418 40.1421 40.2391 35.9448 40.2391 30.7671V9.51709C40.2391 4.33942 36.0418 0.14209 30.8641 0.14209Z" fill="#0A66C2"/>
<path d="M29.1008 34.1554H33.6743C33.84 34.1554 33.9989 34.0895 34.1161 33.9724C34.2334 33.8552 34.2992 33.6963 34.2993 33.5305L34.3016 23.8677C34.3016 18.8172 33.2133 14.9352 27.3113 14.9352C25.0677 14.8518 22.9519 16.0083 21.8102 17.9396C21.8046 17.949 21.7961 17.9563 21.786 17.9604C21.7759 17.9645 21.7647 17.9651 21.7542 17.9623C21.7436 17.9594 21.7343 17.9532 21.7276 17.9446C21.721 17.9359 21.7173 17.9253 21.7172 17.9144V16.0265C21.7172 15.8607 21.6514 15.7017 21.5342 15.5845C21.417 15.4673 21.258 15.4015 21.0922 15.4015H16.7521C16.5863 15.4015 16.4273 15.4673 16.3101 15.5845C16.1929 15.7017 16.1271 15.8607 16.1271 16.0265V33.5296C16.1271 33.6953 16.1929 33.8543 16.3101 33.9715C16.4273 34.0887 16.5863 34.1546 16.7521 34.1546H21.3252C21.491 34.1546 21.6499 34.0887 21.7671 33.9715C21.8844 33.8543 21.9502 33.6953 21.9502 33.5296V24.8776C21.9502 22.4312 22.4143 20.0619 25.4472 20.0619C28.4371 20.0619 28.4758 22.8613 28.4758 25.036V33.5304C28.4758 33.6961 28.5417 33.8551 28.6589 33.9723C28.7761 34.0895 28.9351 34.1554 29.1008 34.1554ZM6.17661 9.45881C6.17661 11.3127 7.7027 12.838 9.55661 12.838C11.41 12.8379 12.9352 11.3116 12.9352 9.45818C12.9349 7.60475 11.4096 6.07959 9.55598 6.07959C7.70192 6.07959 6.17661 7.60506 6.17661 9.45881ZM7.26395 34.1554H11.8432C12.0089 34.1554 12.1679 34.0895 12.2851 33.9723C12.4023 33.8551 12.4682 33.6961 12.4682 33.5304V16.0265C12.4682 15.8607 12.4023 15.7017 12.2851 15.5845C12.1679 15.4673 12.0089 15.4015 11.8432 15.4015H7.26395C7.09819 15.4015 6.93922 15.4673 6.82201 15.5845C6.7048 15.7017 6.63895 15.8607 6.63895 16.0265V33.5304C6.63895 33.6961 6.7048 33.8551 6.82201 33.9723C6.93922 34.0895 7.09819 34.1554 7.26395 34.1554Z" fill="#F9FBF2"/>
</svg>
