<svg width="34" height="36" viewBox="0 0 34 36" fill="none" xmlns="http://www.w3.org/2000/svg">
<path id="Vector" d="M29.25 17.4551C29.9531 17.9355 30.5801 18.4805 31.1309 19.0898C31.6816 19.6992 32.1562 20.3672 32.5547 21.0938C32.9531 21.8203 33.2461 22.5879 33.4336 23.3965C33.6211 24.2051 33.7266 25.0312 33.75 25.875C33.75 27.2695 33.4863 28.582 32.959 29.8125C32.4316 31.043 31.7051 32.1152 30.7793 33.0293C29.8535 33.9434 28.7812 34.6641 27.5625 35.1914C26.3438 35.7188 25.0312 35.9883 23.625 36C22.5586 36 21.5273 35.8418 20.5312 35.5254C19.5352 35.209 18.6211 34.752 17.7891 34.1543C16.957 33.5566 16.2188 32.8418 15.5742 32.0098C14.9297 31.1777 14.4316 30.2578 14.0801 29.25H0V2.25H4.5V0H6.75V2.25H22.5V0H24.75V2.25H29.25V17.4551ZM2.25 4.5V9H27V4.5H24.75V6.75H22.5V4.5H6.75V6.75H4.5V4.5H2.25ZM13.5527 27C13.5176 26.6367 13.5 26.2617 13.5 25.875C13.5 24.8672 13.6406 23.8887 13.9219 22.9395C14.2031 21.9902 14.6309 21.0938 15.2051 20.25H13.5V18H15.75V19.5117C16.2305 18.9141 16.7637 18.3867 17.3496 17.9297C17.9355 17.4727 18.5684 17.0801 19.248 16.752C19.9277 16.4238 20.6367 16.1777 21.375 16.0137C22.1133 15.8496 22.8633 15.7617 23.625 15.75C24.7969 15.75 25.9219 15.9434 27 16.3301V11.25H2.25V27H13.5527ZM23.625 33.75C24.7148 33.75 25.7344 33.5449 26.6836 33.1348C27.6328 32.7246 28.4648 32.1621 29.1797 31.4473C29.8945 30.7324 30.457 29.9004 30.8672 28.9512C31.2773 28.002 31.4883 26.9766 31.5 25.875C31.5 24.7852 31.2949 23.7656 30.8848 22.8164C30.4746 21.8672 29.9121 21.0352 29.1973 20.3203C28.4824 19.6055 27.6504 19.043 26.7012 18.6328C25.752 18.2227 24.7266 18.0117 23.625 18C22.5352 18 21.5156 18.2051 20.5664 18.6152C19.6172 19.0254 18.7852 19.5879 18.0703 20.3027C17.3555 21.0176 16.793 21.8496 16.3828 22.7988C15.9727 23.748 15.7617 24.7734 15.75 25.875C15.75 26.9648 15.9551 27.9844 16.3652 28.9336C16.7754 29.8828 17.3379 30.7148 18.0527 31.4297C18.7676 32.1445 19.5996 32.707 20.5488 33.1172C21.498 33.5273 22.5234 33.7383 23.625 33.75ZM24.75 24.75H28.125V27H22.5V20.25H24.75V24.75ZM4.5 18H6.75V20.25H4.5V18ZM9 18H11.25V20.25H9V18ZM9 13.5H11.25V15.75H9V13.5ZM4.5 22.5H6.75V24.75H4.5V22.5ZM9 22.5H11.25V24.75H9V22.5ZM15.75 15.75H13.5V13.5H15.75V15.75ZM20.25 15.75H18V13.5H20.25V15.75ZM24.75 15.75H22.5V13.5H24.75V15.75Z" fill="#373B3D"/>
</svg>
