<svg width="42" height="40" viewBox="0 0 42 40" fill="none" xmlns="http://www.w3.org/2000/svg">
<path id="Vector" d="M37.6822 14.6327L9.67419 0.628718C8.56886 0.0785786 7.32075 -0.117275 6.10004 0.0678607C4.87932 0.252996 3.74541 0.81011 2.8529 1.66325C1.96039 2.51638 1.35271 3.62402 1.11273 4.83514C0.872737 6.04627 1.01211 7.30194 1.51185 8.43095L6.31323 19.174C6.42217 19.4338 6.47828 19.7126 6.47828 19.9943C6.47828 20.2759 6.42217 20.5548 6.31323 20.8145L1.51185 31.5576C1.10514 32.4713 0.9332 33.4721 1.01167 34.4692C1.09013 35.4662 1.41651 36.4278 1.96115 37.2666C2.50578 38.1054 3.2514 38.7949 4.13025 39.2722C5.0091 39.7496 5.9933 39.9998 6.99343 40C7.93016 39.9907 8.85294 39.7719 9.6942 39.3598L37.7022 25.3558C38.6957 24.856 39.5308 24.0901 40.1143 23.1433C40.6978 22.1966 41.0068 21.1064 41.0068 19.9943C41.0068 18.8822 40.6978 17.7919 40.1143 16.8452C39.5308 15.8985 38.6957 15.1325 37.7022 14.6327H37.6822ZM35.9017 21.7748L7.89368 35.7788C7.5259 35.9554 7.11292 36.0153 6.71012 35.9505C6.30731 35.8858 5.93394 35.6994 5.64006 35.4164C5.34619 35.1334 5.14586 34.7673 5.06593 34.3672C4.98601 33.9672 5.03032 33.5522 5.19291 33.178L9.97428 22.435C10.0362 22.2915 10.0896 22.1446 10.1343 21.9948H23.9183C24.4489 21.9948 24.9577 21.7841 25.3329 21.4089C25.7081 21.0337 25.9188 20.5249 25.9188 19.9943C25.9188 19.4637 25.7081 18.9548 25.3329 18.5797C24.9577 18.2045 24.4489 17.9937 23.9183 17.9937H10.1343C10.0896 17.844 10.0362 17.697 9.97428 17.5536L5.19291 6.81049C5.03032 6.43631 4.98601 6.02136 5.06593 5.62129C5.14586 5.22121 5.34619 4.85514 5.64006 4.57214C5.93394 4.28915 6.30731 4.10277 6.71012 4.038C7.11292 3.97323 7.5259 4.03315 7.89368 4.20974L35.9017 18.2138C36.2294 18.3816 36.5044 18.6367 36.6965 18.9509C36.8885 19.265 36.9901 19.6261 36.9901 19.9943C36.9901 20.3625 36.8885 20.7235 36.6965 21.0377C36.5044 21.3518 36.2294 21.6069 35.9017 21.7748Z" fill="#BCF816"/>
</svg>
