<svg width="41" height="40" viewBox="0 0 41 40" fill="none" xmlns="http://www.w3.org/2000/svg">
<g id="octicon:download-16">
<path id="Vector" d="M7.58966 35C6.42934 35 5.31654 34.5391 4.49607 33.7186C3.6756 32.8981 3.21466 31.7853 3.21466 30.625V24.375C3.21466 23.8777 3.4122 23.4008 3.76384 23.0492C4.11547 22.6975 4.59238 22.5 5.08966 22.5C5.58694 22.5 6.06386 22.6975 6.41549 23.0492C6.76712 23.4008 6.96466 23.8777 6.96466 24.375V30.625C6.96466 30.97 7.24466 31.25 7.58966 31.25H33.8397C34.0054 31.25 34.1644 31.1842 34.2816 31.0669C34.3988 30.9497 34.4647 30.7908 34.4647 30.625V24.375C34.4647 23.8777 34.6622 23.4008 35.0138 23.0492C35.3655 22.6975 35.8424 22.5 36.3397 22.5C36.8369 22.5 37.3139 22.6975 37.6655 23.0492C38.0171 23.4008 38.2147 23.8777 38.2147 24.375V30.625C38.2147 31.7853 37.7537 32.8981 36.9333 33.7186C36.1128 34.5391 35 35 33.8397 35H7.58966Z" fill="#153243"/>
<path id="Vector_2" d="M18.8397 19.2225V5C18.8397 4.50272 19.0372 4.02581 19.3888 3.67417C19.7405 3.32254 20.2174 3.125 20.7147 3.125C21.2119 3.125 21.6888 3.32254 22.0405 3.67417C22.3921 4.02581 22.5897 4.50272 22.5897 5V19.2225L27.5147 14.3C27.6887 14.126 27.8952 13.988 28.1226 13.8938C28.3499 13.7996 28.5936 13.7512 28.8397 13.7512C29.0857 13.7512 29.3294 13.7996 29.5567 13.8938C29.7841 13.988 29.9907 14.126 30.1647 14.3C30.3387 14.474 30.4767 14.6806 30.5708 14.9079C30.665 15.1353 30.7135 15.3789 30.7135 15.625C30.7135 15.8711 30.665 16.1147 30.5708 16.3421C30.4767 16.5694 30.3387 16.776 30.1647 16.95L22.0397 25.075C21.8657 25.2492 21.6592 25.3873 21.4318 25.4816C21.2045 25.5759 20.9608 25.6244 20.7147 25.6244C20.4685 25.6244 20.2248 25.5759 19.9975 25.4816C19.7701 25.3873 19.5636 25.2492 19.3897 25.075L11.2647 16.95C11.0907 16.776 10.9526 16.5694 10.8585 16.3421C10.7643 16.1147 10.7158 15.8711 10.7158 15.625C10.7158 15.3789 10.7643 15.1353 10.8585 14.9079C10.9526 14.6806 11.0907 14.474 11.2647 14.3C11.4387 14.126 11.6452 13.988 11.8726 13.8938C12.0999 13.7996 12.3436 13.7512 12.5897 13.7512C12.8357 13.7512 13.0794 13.7996 13.3067 13.8938C13.5341 13.988 13.7407 14.126 13.9147 14.3L18.8397 19.2225Z" fill="#153243"/>
</g>
</svg>
