<svg width="41" height="40" viewBox="0 0 41 40" fill="none" xmlns="http://www.w3.org/2000/svg">
<g id="Electron">
<path d="M14.6065 8.59522C8.93897 7.64224 4.46253 8.63887 2.6759 11.5051C1.34283 13.633 1.7254 16.4555 3.5988 19.4709C3.63687 19.5321 3.68762 19.5857 3.74816 19.6287C3.8087 19.6718 3.87784 19.7034 3.95164 19.7218C4.02543 19.7402 4.10244 19.7451 4.17826 19.736C4.25407 19.727 4.32722 19.7043 4.39351 19.6692C4.45981 19.634 4.51796 19.5872 4.56464 19.5314C4.61132 19.4756 4.64562 19.4118 4.66558 19.3437C4.68554 19.2757 4.69077 19.2047 4.68097 19.1347C4.67117 19.0648 4.64653 18.9974 4.60846 18.9362C2.92043 16.2191 2.58914 13.7821 3.68162 12.0253C5.16456 9.65733 9.15983 8.75163 14.3975 9.64642C14.5491 9.67198 14.7056 9.64093 14.8324 9.5601C14.9593 9.47927 15.0461 9.35527 15.0739 9.21539C15.1016 9.07551 15.0679 8.93121 14.9803 8.81422C14.8926 8.69724 14.7582 8.61715 14.6065 8.59159V8.59522ZM6.54496 23.1265C9.07203 25.6241 11.9981 27.7511 15.2218 29.4336C23.441 33.7985 32.1809 34.9806 36.5193 32.2671C36.6464 32.1871 36.7338 32.0637 36.7623 31.9242C36.7908 31.7847 36.758 31.6405 36.6712 31.5233C36.5844 31.4061 36.4506 31.3255 36.2993 31.2992C36.1481 31.273 35.9917 31.3032 35.8646 31.3833C31.9758 33.8166 23.6501 32.6963 15.7897 28.5025C12.6747 26.8742 9.84715 24.8173 7.40475 22.4026C7.30015 22.2975 7.15454 22.235 6.99996 22.2288C6.84537 22.2227 6.69447 22.2734 6.58046 22.3699C6.46644 22.4664 6.39865 22.6006 6.39199 22.7432C6.38534 22.8858 6.44036 23.0249 6.54496 23.1301V23.1265Z" fill="#47848F"/>
<path d="M35.1113 22.4717C38.8226 18.4306 40.1162 14.3641 38.3336 11.5197C37.0242 9.42454 34.2515 8.31879 30.5678 8.27514C30.4135 8.27514 30.2656 8.33166 30.1565 8.43228C30.0474 8.53289 29.9861 8.66936 29.9861 8.81165C29.9861 8.95394 30.0474 9.0904 30.1565 9.19102C30.2656 9.29163 30.4135 9.34816 30.5678 9.34816C33.8808 9.38817 36.2669 10.3412 37.3436 12.058C38.8226 14.4223 37.667 18.0487 34.2397 21.7843C34.1905 21.838 34.1532 21.9002 34.1301 21.9672C34.1069 22.0342 34.0983 22.1047 34.1047 22.1748C34.1111 22.2449 34.1324 22.3132 34.1674 22.3756C34.2024 22.4381 34.2505 22.4936 34.3087 22.539C34.367 22.5844 34.4344 22.6188 34.507 22.6401C34.5797 22.6615 34.6562 22.6694 34.7322 22.6635C34.8082 22.6576 34.8822 22.6379 34.9499 22.6057C35.0177 22.5734 35.0779 22.5291 35.1271 22.4754L35.1113 22.4717ZM25.5787 8.77346C21.9372 9.53559 18.4451 10.8116 15.2257 12.5563C6.74216 17.0848 1.20479 23.7375 1.95809 28.5679C1.96923 28.6396 1.99556 28.7085 2.03558 28.7708C2.0756 28.8331 2.12852 28.8874 2.19133 28.9308C2.25414 28.9742 2.3256 29.0058 2.40164 29.0237C2.47768 29.0417 2.5568 29.0456 2.63449 29.0353C2.71218 29.0251 2.78692 29.0008 2.85443 28.9639C2.92195 28.927 2.98092 28.8782 3.02798 28.8202C3.07504 28.7623 3.10927 28.6964 3.12871 28.6263C3.14815 28.5562 3.15243 28.4832 3.14129 28.4115C2.44321 24.1231 7.68872 17.8123 15.8055 13.4875C18.9196 11.7936 22.2987 10.5532 25.8232 9.8101C25.8978 9.79529 25.9685 9.76708 26.0312 9.72708C26.094 9.68708 26.1476 9.63607 26.189 9.57696C26.2304 9.51785 26.2587 9.4518 26.2724 9.38259C26.2861 9.31337 26.2849 9.24235 26.2689 9.17356C26.2528 9.10478 26.2222 9.03959 26.1789 8.98171C26.1355 8.92382 26.0802 8.87439 26.0161 8.83622C25.952 8.79805 25.8804 8.7719 25.8053 8.75926C25.7303 8.74662 25.6533 8.74774 25.5787 8.76254V8.77346Z" fill="#47848F"/>
<path d="M11.8181 31.9179C13.7901 36.912 16.9453 40.0002 20.5146 40.0002C23.1176 40.0002 25.5235 38.3633 27.4008 35.4826C27.4834 35.3615 27.5105 35.2151 27.4762 35.0756C27.4418 34.9361 27.3487 34.8149 27.2174 34.7387C27.0861 34.6625 26.9274 34.6375 26.7762 34.6692C26.6249 34.701 26.4935 34.7868 26.4109 34.9079C24.7228 37.4977 22.6522 38.9089 20.5185 38.9089C17.5527 38.9089 14.7248 36.1664 12.9303 31.5469C12.878 31.4133 12.7703 31.3044 12.6309 31.244C12.4914 31.1836 12.3317 31.1768 12.1868 31.225C12.042 31.2733 11.9238 31.3726 11.8584 31.5012C11.7929 31.6298 11.7855 31.7771 11.8378 31.9107L11.8181 31.9179ZM29.5661 30.9395C30.6152 27.7192 31.1351 24.372 31.1082 21.0095C31.1082 12.1307 27.74 4.48138 22.9401 2.51357C22.8702 2.48491 22.7949 2.46923 22.7184 2.46743C22.6419 2.46563 22.5658 2.47774 22.4943 2.50307C22.4229 2.5284 22.3576 2.56646 22.3022 2.61507C22.2467 2.66367 22.2021 2.72188 22.1711 2.78637C22.1083 2.9166 22.1042 3.06449 22.1597 3.19751C22.2152 3.33053 22.3257 3.43777 22.4669 3.49565C26.7461 5.24886 29.9605 12.509 29.9605 21.0095C29.9867 24.2635 29.4842 27.5028 28.4696 30.6194C28.4468 30.6865 28.4386 30.7571 28.4454 30.8272C28.4522 30.8972 28.4739 30.9653 28.5092 31.0277C28.5446 31.09 28.5929 31.1453 28.6514 31.1904C28.7099 31.2355 28.7775 31.2695 28.8502 31.2905C28.923 31.3115 28.9995 31.3191 29.0755 31.3128C29.1514 31.3066 29.2253 31.2866 29.2929 31.254C29.3605 31.2214 29.4204 31.1768 29.4693 31.1229C29.5182 31.0689 29.5551 31.0066 29.5779 30.9395H29.5661ZM40.4949 30.4157C40.4949 29.9085 40.3318 29.4128 40.0263 28.9911C39.7207 28.5693 39.2865 28.2407 38.7784 28.0466C38.2703 27.8525 37.7113 27.8017 37.1719 27.9007C36.6325 27.9996 36.1371 28.2438 35.7482 28.6025C35.3594 28.9611 35.0946 29.418 34.9873 29.9154C34.88 30.4129 34.935 30.9285 35.1455 31.397C35.3559 31.8656 35.7123 32.2661 36.1696 32.5479C36.6268 32.8297 37.1644 32.9801 37.7144 32.9801C38.4518 32.9801 39.159 32.7099 39.6805 32.229C40.2019 31.7481 40.4949 31.0958 40.4949 30.4157ZM39.3314 30.4157C39.3314 30.7107 39.2366 30.999 39.0589 31.2443C38.8812 31.4895 38.6286 31.6806 38.3332 31.7935C38.0377 31.9064 37.7126 31.9359 37.3989 31.8784C37.0852 31.8208 36.7971 31.6788 36.5709 31.4702C36.3448 31.2617 36.1908 30.9959 36.1284 30.7067C36.066 30.4174 36.098 30.1175 36.2204 29.845C36.3428 29.5725 36.5501 29.3396 36.816 29.1757C37.0819 29.0119 37.3945 28.9244 37.7144 28.9244C38.1432 28.9244 38.5545 29.0815 38.8578 29.3612C39.161 29.6409 39.3314 30.0202 39.3314 30.4157ZM3.27539 32.9801C3.82532 32.9801 4.36291 32.8297 4.82016 32.5479C5.27742 32.2661 5.6338 31.8656 5.84425 31.397C6.0547 30.9285 6.10977 30.4129 6.00248 29.9154C5.89519 29.418 5.63037 28.9611 5.24151 28.6025C4.85265 28.2438 4.35721 27.9996 3.81784 27.9007C3.27847 27.8017 2.71941 27.8525 2.21133 28.0466C1.70326 28.2407 1.269 28.5693 0.963474 28.9911C0.657947 29.4128 0.494873 29.9085 0.494873 30.4157C0.494873 31.0958 0.78782 31.7481 1.30927 32.229C1.83072 32.7099 2.53795 32.9801 3.27539 32.9801ZM3.27539 31.907C2.95557 31.907 2.64293 31.8196 2.37701 31.6557C2.11109 31.4918 1.90383 31.2589 1.78144 30.9864C1.65905 30.7139 1.62703 30.4141 1.68942 30.1248C1.75182 29.8355 1.90582 29.5698 2.13197 29.3612C2.35812 29.1526 2.64625 29.0106 2.95992 28.9531C3.2736 28.8955 3.59873 28.925 3.8942 29.0379C4.18968 29.1508 4.44223 29.3419 4.61991 29.5872C4.79759 29.8324 4.89243 30.1208 4.89243 30.4157C4.89243 30.8112 4.72206 31.1906 4.41881 31.4702C4.11555 31.7499 3.70425 31.907 3.27539 31.907Z" fill="#47848F"/>
<path d="M20.5146 5.12882C21.0645 5.12882 21.6021 4.97843 22.0594 4.69666C22.5166 4.41488 22.873 4.01439 23.0835 3.54582C23.2939 3.07725 23.349 2.56164 23.2417 2.06421C23.1344 1.56678 22.8696 1.10986 22.4807 0.75123C22.0919 0.392602 21.5964 0.148372 21.057 0.0494267C20.5177 -0.0495188 19.9586 0.00126379 19.4505 0.195352C18.9425 0.389441 18.5082 0.718118 18.2027 1.13982C17.8972 1.56152 17.7341 2.05731 17.7341 2.56449C17.7341 3.24459 18.027 3.89684 18.5485 4.37775C19.0699 4.85865 19.7772 5.12882 20.5146 5.12882ZM20.5146 4.0558C20.1948 4.0558 19.8821 3.96834 19.6162 3.80447C19.3503 3.6406 19.143 3.40769 19.0206 3.13519C18.8983 2.86269 18.8662 2.56283 18.9286 2.27355C18.991 1.98426 19.145 1.71853 19.3712 1.50997C19.5973 1.30141 19.8854 1.15937 20.1991 1.10183C20.5128 1.04429 20.8379 1.07382 21.1334 1.18669C21.4289 1.29957 21.6814 1.49071 21.8591 1.73596C22.0368 1.9812 22.1316 2.26954 22.1316 2.56449C22.1316 2.96001 21.9613 3.33933 21.658 3.61901C21.3548 3.89868 20.9435 4.0558 20.5146 4.0558ZM20.9405 22.8209C20.5518 22.9011 20.146 22.8731 19.7746 22.7404C19.4031 22.6076 19.0828 22.3762 18.8541 22.0753C18.6255 21.7745 18.4989 21.4178 18.4903 21.0505C18.4818 20.6832 18.5917 20.3218 18.8061 20.0122C19.0205 19.7026 19.3297 19.4586 19.6947 19.3113C20.0596 19.164 20.4637 19.1199 20.8558 19.1846C21.2479 19.2494 21.6104 19.42 21.8972 19.675C22.184 19.9299 22.3823 20.2577 22.4669 20.6167C22.5797 21.0955 22.4825 21.5961 22.1966 22.0091C21.9106 22.4221 21.459 22.7139 20.9405 22.8209Z" fill="#47848F"/>
</g>
</svg>
