<svg width="36" height="36" viewBox="0 0 36 36" fill="none" xmlns="http://www.w3.org/2000/svg">
<path id="Vector" d="M34 5.12619C34 4.03203 34 3.48494 33.78 3.06681C33.589 2.69932 33.2837 2.40041 32.908 2.21297C32.48 2 31.92 2 30.8 2H5.2C4.08 2 3.52 2 3.092 2.21297C2.71569 2.40029 2.40974 2.69919 2.218 3.06681C2 3.48494 2 4.03203 2 5.12619V6.5662C2 7.0449 2 7.28327 2.056 7.50796C2.10497 7.708 2.18597 7.89923 2.296 8.07459C2.418 8.26998 2.592 8.43996 2.936 8.77798L13.062 18.6685C13.408 19.0065 13.582 19.1765 13.704 19.3719C13.814 19.5477 13.896 19.7392 13.944 19.9385C14 20.1612 14 20.3977 14 20.8646V30.1572C14 31.8317 14 32.6699 14.36 33.174C14.5162 33.392 14.7163 33.5766 14.9481 33.7164C15.1799 33.8561 15.4385 33.9482 15.708 33.9868C16.33 34.0767 17.098 33.7035 18.63 32.9532L20.23 32.1717C20.874 31.8591 21.194 31.7028 21.428 31.4683C21.6356 31.2612 21.7934 31.0116 21.89 30.7375C22 30.4288 22 30.0771 22 29.3757V20.8803C22 20.4016 22 20.1632 22.056 19.9385C22.1049 19.7384 22.1859 19.5472 22.296 19.3719C22.416 19.1765 22.59 19.0085 22.93 18.6763L22.938 18.6685L33.064 8.77798C33.408 8.43996 33.58 8.26998 33.704 8.07459C33.8142 7.89932 33.8952 7.70806 33.944 7.50796C34 7.28718 34 7.0488 34 6.58183V5.12619Z" stroke="#153243" stroke-width="3" stroke-linecap="round" stroke-linejoin="round"/>
</svg>
