<svg width="41" height="40" viewBox="0 0 41 40" fill="none" xmlns="http://www.w3.org/2000/svg">
<path id="GIT" d="M39.7403 18.2186L22.2758 0.754716C21.2707 -0.251023 19.6395 -0.251023 18.6328 0.754716L15.0065 4.38159L19.6068 8.98187C20.6763 8.62096 21.9019 8.86305 22.754 9.71511C23.6104 10.5726 23.8506 11.8087 23.4809 12.8816L27.9145 17.3155C28.9871 16.9457 30.2251 17.1846 31.0812 18.0427C32.279 19.2395 32.279 21.1797 31.0812 22.3771C30.7966 22.6619 30.4587 22.8878 30.0867 23.042C29.7147 23.1961 29.316 23.2754 28.9134 23.2754C28.5108 23.2754 28.1121 23.1961 27.7401 23.042C27.3681 22.8878 27.0302 22.6619 26.7455 22.3771C26.3179 21.9492 26.0264 21.4044 25.9077 20.8112C25.789 20.218 25.8484 19.6029 26.0785 19.0434L21.944 14.9089L21.9434 25.7904C22.2434 25.9382 22.5173 26.1338 22.7543 26.3697C23.9514 27.5665 23.9514 29.506 22.7543 30.7054C21.5568 31.9022 19.616 31.9022 18.4198 30.7054C17.2227 29.5064 17.2227 27.5668 18.4198 26.3697C18.7066 26.0824 19.0478 25.8551 19.4234 25.7011V14.7188C19.0475 14.5652 18.7062 14.3377 18.4198 14.0499C17.513 13.1436 17.2946 11.8128 17.7598 10.6987L13.2245 6.16333L1.2494 18.1378C0.766276 18.621 0.494873 19.2764 0.494873 19.9598C0.494873 20.6431 0.766276 21.2985 1.2494 21.7818L18.7142 39.2456C19.7199 40.2513 21.3505 40.2513 22.3579 39.2456L39.7406 21.8629C40.2236 21.3795 40.4949 20.724 40.4949 20.0407C40.4948 19.3573 40.2234 18.7019 39.7403 18.2186Z" fill="#F34F29"/>
</svg>
