<svg width="42" height="41" viewBox="0 0 42 41" fill="none" xmlns="http://www.w3.org/2000/svg">
<path d="M20.7366 0.143371C9.40876 0.143371 0.231445 9.32838 0.231445 20.6485C0.231445 29.713 6.10616 37.396 14.248 40.1065C15.2771 40.3001 15.6487 39.6657 15.6487 39.1172C15.6487 38.6302 15.6372 37.3422 15.6295 35.6326C9.92267 36.868 8.72056 32.8759 8.72056 32.8759C7.7863 30.5127 6.43808 29.8783 6.43808 29.8783C4.58237 28.6109 6.58547 28.6378 6.58547 28.6378C8.6411 28.7775 9.72275 30.746 9.72275 30.746C11.5515 33.8832 14.5209 32.9759 15.6961 32.4479C15.8756 31.1266 16.41 30.218 16.9918 29.7117C12.4397 29.1978 7.65301 27.4357 7.65301 19.5784C7.65301 17.3343 8.44759 15.5068 9.76119 14.0715C9.53436 13.5576 8.83974 11.4686 9.94189 8.64402C9.94189 8.64402 11.6579 8.09679 15.5808 10.7471C17.2518 10.2926 18.9753 10.0595 20.7071 10.0537C22.45 10.0653 24.1917 10.2934 25.8334 10.7471C29.7332 8.09679 31.4479 8.64402 31.4479 8.64402C32.5488 11.4686 31.8542 13.5563 31.6542 14.0715C32.955 15.5068 33.7496 17.3356 33.7496 19.5784C33.7496 27.4536 28.9565 29.1901 24.3993 29.6912C25.1118 30.3051 25.7795 31.5674 25.7795 33.4834C25.7795 36.226 25.7539 38.4354 25.7539 39.1031C25.7539 39.6362 26.1127 40.277 27.1687 40.0707C35.3708 37.3883 41.2391 29.6989 41.2391 20.6472C41.2391 9.3271 32.0618 0.14209 20.734 0.14209L20.7366 0.143371Z" fill="#F9FBF2"/>
</svg>
