<svg width="42" height="41" viewBox="0 0 42 41" fill="none" xmlns="http://www.w3.org/2000/svg">
<path id="Vector" d="M21.0051 0.501282C9.67732 0.501282 0.5 9.68629 0.5 21.0064C0.5 30.0709 6.37471 37.7539 14.5165 40.4645C15.5456 40.658 15.9173 40.0236 15.9173 39.4751C15.9173 38.9881 15.9057 37.7001 15.8981 35.9905C10.1912 37.2259 8.98911 33.2338 8.98911 33.2338C8.05485 30.8706 6.70664 30.2362 6.70664 30.2362C4.85093 28.9688 6.85402 28.9957 6.85402 28.9957C8.90966 29.1354 9.9913 31.1039 9.9913 31.1039C11.8201 34.2412 14.7895 33.3338 15.9647 32.8058C16.1441 31.4845 16.6785 30.5759 17.2604 30.0696C12.7082 29.5557 7.92157 27.7936 7.92157 19.9363C7.92157 17.6923 8.71614 15.8647 10.0297 14.4294C9.80291 13.9155 9.1083 11.8265 10.2104 9.00193C10.2104 9.00193 11.9265 8.4547 15.8494 11.105C17.5204 10.6505 19.2439 10.4174 20.9756 10.4117C22.7186 10.4232 24.4602 10.6513 26.1019 11.105C30.0017 8.4547 31.7165 9.00193 31.7165 9.00193C32.8173 11.8265 32.1227 13.9142 31.9228 14.4294C33.2236 15.8647 34.0182 17.6935 34.0182 19.9363C34.0182 27.8115 29.2251 29.548 24.6678 30.0491C25.3804 30.663 26.0481 31.9254 26.0481 33.8413C26.0481 36.5839 26.0224 38.7933 26.0224 39.461C26.0224 39.9941 26.3813 40.6349 27.4373 40.4286C35.6393 37.7462 41.5076 30.0568 41.5076 21.0051C41.5076 9.68501 32.3303 0.5 21.0025 0.5L21.0051 0.501282Z" fill="#153243"/>
</svg>
