<svg width="41" height="40" viewBox="0 0 41 40" fill="none" xmlns="http://www.w3.org/2000/svg">
<g id="JS">
<path d="M0.180634 0H40.1806V40.0003H0.180634V0Z" fill="#F0DB4F"/>
<path d="M36.9071 30.4601C36.614 28.6353 35.4241 27.1025 31.8994 25.6732C30.6749 25.1106 29.3099 24.7076 28.9032 23.7797C28.7587 23.2397 28.7396 22.9355 28.8309 22.6086C29.0933 21.5478 30.3596 21.2171 31.3632 21.5213C32.0096 21.7379 32.6215 22.2361 32.9906 23.0307C34.7167 21.913 34.7132 21.9204 35.9184 21.1522C35.4772 20.4681 35.2417 20.1524 34.9528 19.8597C33.9147 18.7002 32.5001 18.103 30.2378 18.1486L29.0594 18.3011C27.9302 18.5864 26.854 19.1791 26.2229 19.9738C24.3294 22.1223 24.8694 25.8825 27.1735 27.43C29.4435 29.1338 32.7781 29.5213 33.204 31.1145C33.6185 33.0649 31.7706 33.6963 29.934 33.472C28.5804 33.1905 27.8276 32.5026 27.0138 31.2516C25.5158 32.1185 25.5158 32.1185 23.9757 33.0042C24.3409 33.8027 24.7247 34.1641 25.3369 34.8559C28.2344 37.7949 35.4851 37.6505 36.7856 33.202C36.8384 33.0493 37.1886 32.0306 36.9071 30.4601ZM21.9259 18.3841H18.1845L18.1692 28.0569C18.1692 30.1141 18.2756 31.9999 17.941 32.578C17.3937 33.7149 15.9753 33.5739 15.3289 33.3535C14.671 33.0301 14.3364 32.5703 13.9488 31.9204C13.8424 31.7338 13.7626 31.5893 13.7357 31.5782L10.6938 33.441C11.1996 34.4792 11.9448 35.3802 12.8992 35.9656C14.3249 36.8213 16.2412 37.0837 18.2452 36.6235C19.5496 36.2436 20.6749 35.4566 21.2642 34.2587C22.116 32.6882 21.9333 30.7873 21.9256 28.6848C21.9448 25.2547 21.9259 21.8252 21.9259 18.3841Z" fill="#323330"/>
</g>
</svg>
