<svg width="36" height="40" viewBox="0 0 36 40" fill="none" xmlns="http://www.w3.org/2000/svg">
<path id="Vector" d="M34.2989 8.86312L19.7116 0.39299C18.7916 -0.130997 17.5938 -0.130997 16.6666 0.39299L1.92347 8.86312C0.97407 9.40927 0.302216 10.4357 0.302216 11.5337V28.4514C0.302216 29.5494 0.991603 30.5762 1.941 31.1253L5.83617 33.3377C7.69791 34.2547 8.35587 34.2547 9.20305 34.2547C11.9596 34.2547 13.5342 32.5878 13.5342 29.6804V12.9783C13.5342 12.7424 13.4115 12.3914 13.1799 12.3914H11.3198C11.0843 12.3914 10.557 12.7424 10.557 12.9779V29.68C10.557 30.9688 9.39128 32.2513 7.21263 31.162L3.18778 28.8421C3.04752 28.766 2.94862 28.6129 2.94862 28.4514V11.5337C2.94862 11.3742 3.13221 11.2141 3.27346 11.1324L17.9689 2.67683C18.1062 2.5991 18.308 2.5991 18.4449 2.67683L32.9611 11.1304C33.1 11.2141 33.0511 11.3693 33.0511 11.5337V28.4514C33.0511 28.6129 33.1116 28.77 32.9743 28.8477L18.3907 37.3083C18.2656 37.3834 18.1105 37.3834 17.9735 37.3083L14.2332 35.0757C14.1204 35.0102 13.9864 34.9867 13.8782 35.0473C12.8375 35.6371 12.6457 35.7155 11.6695 36.0539C11.4293 36.1376 11.075 36.2828 11.8051 36.692L16.7003 39.5878C17.1677 39.8578 17.6978 39.9999 18.2375 40C18.7807 40 19.3126 39.8591 19.7814 39.5878L34.2985 31.1253C35.2479 30.5722 35.6978 29.5494 35.6978 28.4514V11.5337C35.6978 10.4357 35.2479 9.41192 34.2989 8.86312ZM22.7668 25.7706C18.8879 25.7706 18.0334 24.7005 17.7486 22.7716C17.7155 22.5639 17.5392 22.3154 17.3278 22.3154H15.432C15.1975 22.3154 15.0089 22.5999 15.0089 22.8335C15.0089 25.3032 16.3516 28.2956 22.7672 28.2956C27.4113 28.2956 30.0739 26.4911 30.0739 23.2976C30.0739 20.1312 27.9346 19.3002 23.4308 18.7041C18.8783 18.1024 18.4158 17.7984 18.4158 16.7319C18.4158 15.8526 18.8075 14.6799 22.1783 14.6799C25.1903 14.6799 26.3004 15.3263 26.7573 17.3564C26.7963 17.5473 26.9706 17.6842 27.1675 17.6842H29.0709C29.188 17.6842 29.2998 17.6369 29.3818 17.5532C29.4612 17.4633 29.5033 17.3505 29.4927 17.2294C29.1979 13.7335 26.8754 12.1043 22.178 12.1043C17.9997 12.1043 15.5071 13.8688 15.5071 16.8265C15.5071 20.0346 17.9871 20.9211 21.9981 21.3177C26.7963 21.7881 27.1695 22.4894 27.1695 23.4332C27.1695 25.0723 25.8535 25.7706 22.7668 25.7706Z" fill="#83CD29"/>
</svg>
