<svg width="77" height="40" viewBox="0 0 77 40" fill="none" xmlns="http://www.w3.org/2000/svg">
<g id="PHP">
<path d="M0.180634 20.0002C0.180634 31.0454 17.2026 40.0002 38.2001 40.0002C59.1975 40.0002 76.2195 31.0454 76.2195 20.0002C76.2195 8.95492 59.1969 0.000152588 38.2001 0.000152588C17.2026 0.000152588 0.180634 8.95492 0.180634 20.0002Z" fill="url(#paint0_radial_4_155)"/>
<path d="M38.2001 38.515C58.3771 38.515 74.7344 30.225 74.7344 20.0002C74.7344 9.77411 58.3771 1.48529 38.2001 1.48529C18.023 1.48529 1.66577 9.77411 1.66577 20.0002C1.66577 30.225 18.023 38.515 38.2001 38.515Z" fill="#777BB3"/>
<path d="M20.8371 22.2956C22.4963 22.2956 23.7343 21.9896 24.5178 21.3867C25.2937 20.7891 25.8289 19.7548 26.1099 18.3124C26.3713 16.9639 26.2715 16.023 25.8129 15.5145C25.3447 14.9953 24.3319 14.7321 22.8028 14.7321H20.1509L18.6818 22.2956H20.8371ZM12.1645 31.6121C12.1036 31.612 12.0436 31.5985 11.9886 31.5724C11.9336 31.5464 11.885 31.5085 11.8464 31.4615C11.8078 31.4145 11.7801 31.3595 11.7652 31.3005C11.7504 31.2415 11.7488 31.1799 11.7605 31.1202L15.6557 11.0781C15.6741 10.9844 15.7245 10.9 15.7981 10.8392C15.8718 10.7784 15.9642 10.7451 16.0597 10.7448H24.456C27.0948 10.7448 29.0588 11.4612 30.2938 12.8745C31.5342 14.2943 31.9179 16.2808 31.4326 18.7764C31.2348 19.7928 30.895 20.7368 30.4227 21.5827C29.9311 22.4528 29.3038 23.2389 28.5645 23.9114C27.655 24.7621 26.6255 25.3799 25.5069 25.7429C24.4067 26.1017 22.9929 26.2835 21.307 26.2835H17.9066L16.9359 31.2783C16.9176 31.3723 16.8671 31.457 16.7932 31.5179C16.7193 31.5788 16.6265 31.6121 16.5308 31.6121H12.1645Z" fill="black"/>
<path d="M20.4913 15.1444H22.8028C24.6485 15.1444 25.2895 15.5495 25.5075 15.7913C25.8681 16.1917 25.937 17.037 25.7041 18.234C25.4434 19.5748 24.9598 20.5259 24.2665 21.0593C23.5572 21.6059 22.4024 21.8827 20.8371 21.8827H19.182L20.4919 15.145L20.4913 15.1444ZM24.456 10.3325H16.0603C15.8688 10.3325 15.6833 10.3991 15.5355 10.5208C15.3877 10.6425 15.2868 10.8118 15.25 10.9996L11.3548 31.0424C11.3318 31.1618 11.3354 31.2848 11.3655 31.4026C11.3955 31.5204 11.4512 31.6302 11.5285 31.724C11.6059 31.8178 11.703 31.8933 11.8129 31.9453C11.9228 31.9972 12.0429 32.0242 12.1645 32.0244H16.5308C16.7222 32.0242 16.9076 31.9575 17.0553 31.8357C17.203 31.7139 17.3038 31.5446 17.3405 31.3567L18.2464 26.6957H21.3064C23.0363 26.6957 24.4929 26.5068 25.6352 26.1349C26.8097 25.7536 27.8903 25.1066 28.8467 24.212C29.6168 23.5106 30.2703 22.691 30.7827 21.7841C31.2764 20.9007 31.6316 19.9146 31.8372 18.8548C32.348 16.2273 31.9328 14.1238 30.6039 12.603C29.2875 11.0959 27.219 10.3319 24.456 10.3319V10.3325ZM18.1811 22.7073H20.8371C22.5972 22.7073 23.9083 22.3764 24.7697 21.7122C25.6317 21.0493 26.2121 19.9419 26.515 18.3909C26.8031 16.901 26.6719 15.8501 26.12 15.2376C25.5669 14.6258 24.462 14.3192 22.8028 14.3192H19.8111L18.1811 22.7073ZM24.4566 11.1559C26.9825 11.1559 28.8247 11.8194 29.9831 13.1448C31.1415 14.4707 31.4896 16.3212 31.0286 18.6968C30.8374 19.6758 30.516 20.5704 30.0633 21.3807C29.6095 22.1922 29.0178 22.9336 28.2865 23.6066C27.4144 24.4223 26.4467 25.0039 25.3804 25.3502C24.3147 25.6971 22.9566 25.87 21.307 25.87H17.5668L16.5314 31.1987H12.1651L16.0609 11.1559H24.4566Z" fill="#F9FBF2"/>
<path d="M41.443 26.2835C41.3821 26.2835 41.322 26.2701 41.2669 26.2442C41.2118 26.2183 41.1632 26.1805 41.1244 26.1335C41.0857 26.0865 41.0578 26.0315 41.0429 25.9725C41.0279 25.9135 41.0262 25.8519 41.0379 25.7922L42.7606 16.9241C42.9252 16.0806 42.8848 15.4758 42.6477 15.2192C42.5022 15.063 42.0662 14.801 40.7765 14.801H37.6541L35.4882 25.9502C35.4696 26.0441 35.419 26.1286 35.345 26.1893C35.271 26.2499 35.1782 26.283 35.0825 26.2829H30.7518C30.691 26.2829 30.6309 26.2695 30.5758 26.2436C30.5208 26.2177 30.4721 26.18 30.4334 26.1331C30.3946 26.0862 30.3667 26.0313 30.3516 25.9724C30.3365 25.9135 30.3346 25.8519 30.3461 25.7922L34.2419 5.7494C34.2603 5.65551 34.3108 5.57094 34.3847 5.51015C34.4586 5.44936 34.5513 5.41613 34.647 5.41614H38.9777C39.0385 5.4161 39.0986 5.4295 39.1537 5.4554C39.2087 5.48129 39.2574 5.51902 39.2961 5.56591C39.3349 5.61279 39.3628 5.66767 39.3779 5.7266C39.393 5.78554 39.3949 5.84708 39.3834 5.90683L38.4436 10.7448H41.8018C44.3604 10.7448 46.095 11.1951 47.1055 12.1236C48.135 13.0699 48.457 14.583 48.0608 16.6224L46.2483 25.9502C46.2297 26.044 46.1792 26.1284 46.1053 26.1891C46.0314 26.2497 45.9388 26.2829 45.8432 26.2829H41.443V26.2835Z" fill="black"/>
<path d="M38.9783 5.00327H34.647C34.4555 5.00331 34.2699 5.06995 34.1221 5.19176C33.9743 5.31357 33.8734 5.48298 33.8367 5.67099L29.9415 25.7132C29.9184 25.8326 29.922 25.9557 29.952 26.0735C29.982 26.1914 30.0376 26.3012 30.115 26.3951C30.1924 26.489 30.2895 26.5646 30.3995 26.6166C30.5095 26.6686 30.6296 26.6956 30.7512 26.6957H35.0825C35.274 26.6957 35.4596 26.6291 35.6074 26.5072C35.7552 26.3854 35.8561 26.216 35.8928 26.028L37.9939 15.2133H40.7753C42.0632 15.2133 42.3341 15.4883 42.3442 15.5008C42.4226 15.584 42.5254 15.9731 42.3555 16.8457L40.6327 25.7132C40.6096 25.8326 40.6132 25.9558 40.6432 26.0737C40.6732 26.1916 40.7289 26.3015 40.8064 26.3954C40.8838 26.4892 40.981 26.5649 41.0911 26.6168C41.2011 26.6687 41.3213 26.6957 41.443 26.6957H45.8437C46.0352 26.6956 46.2206 26.6289 46.3683 26.5071C46.516 26.3853 46.6168 26.2159 46.6534 26.028L48.4659 16.7014C48.8906 14.5117 48.5271 12.8697 47.3847 11.82C46.294 10.8185 44.4679 10.3319 41.8018 10.3319H38.9444L39.7886 5.98643C39.8118 5.86691 39.8083 5.74373 39.7783 5.62572C39.7483 5.50771 39.6926 5.3978 39.6152 5.30384C39.5377 5.20988 39.4405 5.13421 39.3304 5.08225C39.2203 5.03028 39.1 5.00332 38.9783 5.00327ZM38.9783 5.82901L37.9428 11.1565H41.8018C44.2297 11.1565 45.9049 11.5806 46.8257 12.4278C47.7483 13.2749 48.0239 14.6465 47.6562 16.5445L45.8432 25.8706H41.443L43.1664 17.0026C43.3624 15.9939 43.2899 15.3059 42.9495 14.9388C42.6091 14.5723 41.8844 14.3887 40.7765 14.3887H37.3137L35.0825 25.87H30.7506L34.6464 5.82722H38.9783V5.82901Z" fill="#F9FBF2"/>
<path d="M54.9144 22.2956C56.5735 22.2956 57.8121 21.9896 58.5963 21.3867C59.3709 20.7891 59.9068 19.7548 60.1878 18.3124C60.4492 16.9639 60.3499 16.023 59.8907 15.5145C59.4226 14.9953 58.4098 14.7321 56.8807 14.7321H54.2294L52.7591 22.2956H54.9144ZM46.2435 31.6121C46.1826 31.6122 46.1224 31.5988 46.0673 31.5728C46.0121 31.5469 45.9634 31.509 45.9247 31.462C45.8859 31.4149 45.8581 31.3599 45.8432 31.3008C45.8283 31.2417 45.8266 31.18 45.8384 31.1202L49.7336 11.0781C49.7521 10.9842 49.8026 10.8996 49.8764 10.8388C49.9504 10.778 50.0431 10.7448 50.1388 10.7448H58.5345C61.1733 10.7448 63.1372 11.4612 64.3717 12.8745C65.6127 14.2943 65.9958 16.2808 65.5105 18.7764C65.325 19.7594 64.9843 20.7067 64.5012 21.5827C64.0094 22.4527 63.3821 23.2388 62.643 23.9114C61.7341 24.7621 60.7034 25.3799 59.5854 25.7429C58.4852 26.1017 57.0714 26.2835 55.3848 26.2835H51.9851L51.015 31.2783C50.9966 31.3724 50.9461 31.4571 50.8721 31.5181C50.798 31.579 50.7051 31.6122 50.6092 31.6121H46.2435Z" fill="black"/>
<path d="M54.5692 15.1444H56.8807C58.7264 15.1444 59.3674 15.5495 59.5848 15.7913C59.9472 16.1917 60.0149 17.037 59.7826 18.234C59.5212 19.5748 59.0377 20.5259 58.3444 21.0593C57.6345 21.6059 56.4797 21.8827 54.9149 21.8827H53.2599L54.5692 15.1444ZM58.5339 10.3325H50.1382C49.9468 10.3327 49.7614 10.3993 49.6138 10.521C49.4661 10.6427 49.3652 10.8119 49.3285 10.9996L45.4327 31.0424C45.4097 31.1619 45.4133 31.2849 45.4434 31.4028C45.4734 31.5206 45.5292 31.6304 45.6066 31.7242C45.684 31.818 45.7812 31.8936 45.8912 31.9455C46.0012 31.9974 46.1213 32.0243 46.243 32.0244H50.6092C50.8007 32.0242 50.9861 31.9575 51.1338 31.8357C51.2815 31.7139 51.3823 31.5446 51.4189 31.3567L52.3249 26.6957H55.3843C57.1135 26.6957 58.5708 26.5068 59.7125 26.1349C60.8876 25.7536 61.9681 25.1066 62.9252 24.2114C63.695 23.5101 64.3483 22.6908 64.8606 21.7841C65.3548 20.9007 65.7089 19.9146 65.915 18.8548C66.4259 16.2273 66.0113 14.1238 64.6818 12.603C63.3654 11.0959 61.2975 10.3319 58.5333 10.3319L58.5339 10.3325ZM52.2589 22.7073H54.9144C56.6751 22.7073 57.9856 22.3764 58.8482 21.7122C59.7096 21.0493 60.2905 19.9419 60.5923 18.3909C60.8816 16.901 60.7503 15.8501 60.1973 15.2376C59.6448 14.6258 58.5393 14.3192 56.8807 14.3192H53.8896L52.2589 22.7073ZM58.5339 11.1559C61.0592 11.1559 62.9026 11.8194 64.0604 13.1448C65.2188 14.4707 65.5675 16.3212 65.1053 18.6968C64.9152 19.6758 64.5933 20.5704 64.1406 21.3807C63.6873 22.1922 63.0951 22.9336 62.3632 23.6066C61.4917 24.4223 60.5234 25.0039 59.4571 25.3502C58.3919 25.6971 57.0345 25.87 55.3843 25.87H51.6447L50.6081 31.1987H46.2418L50.1376 11.1559H58.5339Z" fill="#F9FBF2"/>
</g>
<defs>
<radialGradient id="paint0_radial_4_155" cx="0" cy="0" r="1" gradientUnits="userSpaceOnUse" gradientTransform="translate(23.0077 7.03137) scale(49.9251 49.9251)">
<stop stop-color="#AEB2D5"/>
<stop offset="0.3" stop-color="#AEB2D5"/>
<stop offset="0.75" stop-color="#484C89"/>
<stop offset="1" stop-color="#484C89"/>
</radialGradient>
</defs>
</svg>
