<svg width="36" height="37" viewBox="0 0 36 37" fill="none" xmlns="http://www.w3.org/2000/svg">
<g id="clarity:pop-out-line" clip-path="url(#clip0_13_142)">
<path id="Vector" d="M27 33.5H5C4.46957 33.5 3.96086 33.2893 3.58579 32.9142C3.21071 32.5391 3 32.0304 3 31.5V9.5C3 8.96957 3.21071 8.46086 3.58579 8.08579C3.96086 7.71071 4.46957 7.5 5 7.5H15V9.5H5V31.5H27V21.5H29V31.5C29 32.0304 28.7893 32.5391 28.4142 32.9142C28.0391 33.2893 27.5304 33.5 27 33.5Z" fill="#373B3D"/>
<path id="Vector_2" d="M18 3.5C17.7348 3.5 17.4804 3.60536 17.2929 3.79289C17.1054 3.98043 17 4.23478 17 4.5C17 4.76522 17.1054 5.01957 17.2929 5.20711C17.4804 5.39464 17.7348 5.5 18 5.5H29.59L15.74 19.35C15.6353 19.4396 15.5503 19.55 15.4903 19.674C15.4303 19.7981 15.3965 19.9332 15.3912 20.0709C15.3859 20.2087 15.4091 20.346 15.4594 20.4743C15.5096 20.6026 15.5859 20.7192 15.6833 20.8167C15.7808 20.9141 15.8974 20.9904 16.0257 21.0406C16.154 21.0909 16.2913 21.1141 16.4291 21.1088C16.5668 21.1035 16.7019 21.0697 16.826 21.0097C16.95 20.9497 17.0604 20.8647 17.15 20.76L31 6.91V18.5C31 18.7652 31.1054 19.0196 31.2929 19.2071C31.4804 19.3946 31.7348 19.5 32 19.5C32.2652 19.5 32.5196 19.3946 32.7071 19.2071C32.8946 19.0196 33 18.7652 33 18.5V3.5H18Z" fill="#373B3D"/>
</g>
<defs>
<clipPath id="clip0_13_142">
<rect width="36" height="36" fill="white" transform="translate(0 0.5)"/>
</clipPath>
</defs>
</svg>
