<svg width="45" height="44" viewBox="0 0 45 44" fill="none" xmlns="http://www.w3.org/2000/svg">
<path d="M9.11081 2V0.5V2ZM36.3108 2V0.5V2ZM2.15081 36.912L0.707407 36.5039L0.707365 36.504L2.15081 36.912ZM5.99881 42L5.99837 43.5H5.99881V42ZM39.4228 42V43.5H39.4233L39.4228 42ZM43.2708 36.912L44.7143 36.504L44.7142 36.5039L43.2708 36.912ZM20.7108 34.5C19.8824 34.5 19.2108 35.1716 19.2108 36C19.2108 36.8284 19.8824 37.5 20.7108 37.5V34.5ZM24.7108 37.5C25.5392 37.5 26.2108 36.8284 26.2108 36C26.2108 35.1716 25.5392 34.5 24.7108 34.5V37.5ZM27.7715 8.93934C27.1857 8.35355 26.2359 8.35355 25.6502 8.93934C25.0644 9.52513 25.0644 10.4749 25.6502 11.0607L27.7715 8.93934ZM30.7108 14L31.7715 15.0607C32.3573 14.4749 32.3573 13.5251 31.7715 12.9393L30.7108 14ZM25.6502 16.9393C25.0644 17.5251 25.0644 18.4749 25.6502 19.0607C26.2359 19.6464 27.1857 19.6464 27.7715 19.0607L25.6502 16.9393ZM19.7715 11.0607C20.3573 10.4749 20.3573 9.52513 19.7715 8.93934C19.1857 8.35355 18.2359 8.35355 17.6502 8.93934L19.7715 11.0607ZM14.7108 14L13.6502 12.9393C13.0644 13.5251 13.0644 14.4749 13.6502 15.0607L14.7108 14ZM17.6502 19.0607C18.2359 19.6464 19.1857 19.6464 19.7715 19.0607C20.3573 18.4749 20.3573 17.5251 19.7715 16.9393L17.6502 19.0607ZM6.61081 26.444V6H3.61081V26.444H6.61081ZM6.61081 6C6.61081 5.33696 6.8742 4.70107 7.34304 4.23223L5.22172 2.11091C4.19027 3.14236 3.61081 4.54131 3.61081 6H6.61081ZM7.34304 4.23223C7.81188 3.76339 8.44777 3.5 9.11081 3.5V0.5C7.65212 0.5 6.25317 1.07946 5.22172 2.11091L7.34304 4.23223ZM9.11081 3.5H36.3108V0.5H9.11081V3.5ZM36.3108 3.5C36.9739 3.5 37.6097 3.76339 38.0786 4.23223L40.1999 2.11091C39.1684 1.07946 37.7695 0.5 36.3108 0.5V3.5ZM38.0786 4.23223C38.5474 4.70107 38.8108 5.33696 38.8108 6H41.8108C41.8108 4.54131 41.2314 3.14236 40.1999 2.11091L38.0786 4.23223ZM38.8108 6V26.444H41.8108V6H38.8108ZM5.11081 27.944H40.3108V24.944H5.11081V27.944ZM3.66741 26.0359L0.707407 36.5039L3.59422 37.3201L6.55422 26.8521L3.66741 26.0359ZM0.707365 36.504C0.476208 37.3218 0.437708 38.182 0.594887 39.0172L3.54313 38.4624C3.47169 38.0827 3.48919 37.6917 3.59426 37.32L0.707365 36.504ZM0.594887 39.0172C0.752066 39.8524 1.10065 40.6398 1.61328 41.3176L4.00604 39.508C3.77302 39.1999 3.61458 38.842 3.54313 38.4624L0.594887 39.0172ZM1.61328 41.3176C2.12591 41.9955 2.78864 42.5453 3.54947 42.9239L4.88612 40.2381C4.54029 40.066 4.23905 39.8161 4.00604 39.508L1.61328 41.3176ZM3.54947 42.9239C4.3103 43.3026 5.14852 43.4997 5.99837 43.5L5.99926 40.5C5.61296 40.4999 5.23195 40.4103 4.88612 40.2381L3.54947 42.9239ZM5.99881 43.5H39.4228V40.5H5.99881V43.5ZM39.4233 43.5C40.2731 43.4997 41.1113 43.3026 41.8722 42.9239L40.5355 40.2381C40.1897 40.4103 39.8087 40.4999 39.4224 40.5L39.4233 43.5ZM41.8722 42.9239C42.633 42.5453 43.2957 41.9955 43.8083 41.3176L41.4156 39.508C41.1826 39.8161 40.8813 40.066 40.5355 40.2381L41.8722 42.9239ZM43.8083 41.3176C44.321 40.6398 44.6696 39.8524 44.8267 39.0172L41.8785 38.4624C41.807 38.842 41.6486 39.1999 41.4156 39.508L43.8083 41.3176ZM44.8267 39.0172C44.9839 38.182 44.9454 37.3218 44.7143 36.504L41.8274 37.32C41.9324 37.6917 41.9499 38.0827 41.8785 38.4624L44.8267 39.0172ZM44.7142 36.5039L41.7542 26.0359L38.8674 26.8521L41.8274 37.3201L44.7142 36.5039ZM20.7108 37.5H24.7108V34.5H20.7108V37.5ZM25.6502 11.0607L29.6502 15.0607L31.7715 12.9393L27.7715 8.93934L25.6502 11.0607ZM29.6502 12.9393L25.6502 16.9393L27.7715 19.0607L31.7715 15.0607L29.6502 12.9393ZM17.6502 8.93934L13.6502 12.9393L15.7715 15.0607L19.7715 11.0607L17.6502 8.93934ZM13.6502 15.0607L17.6502 19.0607L19.7715 16.9393L15.7715 12.9393L13.6502 15.0607Z" fill="#F9FBF2"/>
</svg>
