<svg width="46" height="40" viewBox="0 0 46 40" fill="none" xmlns="http://www.w3.org/2000/svg">
<path d="M22.6806 24.0789C24.9436 24.0789 26.7781 22.2528 26.7781 20.0002C26.7781 17.7475 24.9436 15.9214 22.6806 15.9214C20.4177 15.9214 18.5832 17.7475 18.5832 20.0002C18.5832 22.2528 20.4177 24.0789 22.6806 24.0789Z" fill="#61DAFB"/>
<path d="M38.2437 13.2739C37.453 12.9876 36.6263 12.7014 35.7637 12.451C35.9794 11.5923 36.1591 10.7336 36.3028 9.91071C37.0576 5.18799 36.231 1.86062 33.9306 0.572603C33.2477 0.179043 32.4929 0.000152588 31.6303 0.000152588C29.1143 0.000152588 25.9155 1.86062 22.6806 4.97332C19.4458 1.86062 16.2469 0.000152588 13.731 0.000152588C12.8683 0.000152588 12.1135 0.179043 11.4306 0.572603C9.13031 1.8964 8.30364 5.22377 9.05843 9.91071C9.2022 10.7336 9.38191 11.5923 9.59757 12.451C8.73495 12.7014 7.90827 12.9519 7.11753 13.2739C2.62472 14.9912 0.180634 17.3526 0.180634 20.0002C0.180634 22.6477 2.66067 25.0091 7.11753 26.7265C7.90827 27.0127 8.73495 27.2989 9.59757 27.5493C9.38191 28.408 9.2022 29.2667 9.05843 30.0896C8.30364 34.8123 9.13031 38.1397 11.4306 39.4277C12.1135 39.8213 12.8683 40.0002 13.731 40.0002C16.2829 40.0002 19.4817 38.1397 22.6806 35.027C25.9155 38.1397 29.1143 40.0002 31.6303 40.0002C32.4929 40.0002 33.2477 39.8213 33.9306 39.4277C36.231 38.1039 37.0576 34.7765 36.3028 30.0896C36.1591 29.2667 35.9794 28.408 35.7637 27.5493C36.6263 27.2989 37.453 27.0485 38.2437 26.7265C42.7365 25.0091 45.1806 22.6477 45.1806 20.0002C45.1806 17.3526 42.7365 14.9912 38.2437 13.2739ZM32.9242 2.36151C34.3979 3.22019 34.9011 5.86777 34.2901 9.62448C34.1822 10.3758 34.0025 11.1629 33.7869 11.9858C31.9179 11.5565 29.941 11.2703 27.8564 11.0914C26.6343 9.37403 25.3763 7.83557 24.1183 6.44022C26.7781 3.82842 29.4738 2.03951 31.6663 2.03951C32.1335 2.03951 32.5648 2.14684 32.9242 2.36151ZM28.8987 23.578C28.2517 24.7229 27.4969 25.8678 26.7062 27.0127C25.3763 27.12 24.0464 27.1558 22.6806 27.1558C21.2789 27.1558 19.949 27.12 18.6551 27.0127C17.8643 25.8678 17.1455 24.7229 16.4985 23.578C15.8156 22.3973 15.1687 21.1808 14.5936 20.0002C15.1687 18.8195 15.8156 17.603 16.4985 16.4223C17.1455 15.2774 17.9003 14.1325 18.691 12.9876C20.0209 12.8803 21.3508 12.8445 22.7166 12.8445C24.1183 12.8445 25.4482 12.8803 26.7421 12.9876C27.5329 14.1325 28.2517 15.2774 28.8987 16.4223C29.5816 17.603 30.2286 18.8195 30.8036 20.0002C30.1926 21.1808 29.5816 22.3615 28.8987 23.578ZM31.8819 22.3973C32.421 23.6495 32.8524 24.866 33.2477 26.0824C32.0257 26.3687 30.7317 26.5833 29.3659 26.7622C29.7972 26.0824 30.2645 25.3669 30.6599 24.6155C31.0912 23.8642 31.4865 23.1129 31.8819 22.3973ZM22.6806 32.0932C21.818 31.1629 20.9913 30.1612 20.2006 29.1236C21.0273 29.1594 21.854 29.1951 22.6806 29.1951C23.5073 29.1951 24.334 29.1594 25.1607 29.1236C24.3699 30.1612 23.5433 31.1629 22.6806 32.0932ZM15.9953 26.7265C14.6295 26.5476 13.3356 26.3329 12.1135 26.0467C12.5089 24.866 12.9402 23.6137 13.4794 22.3615C13.8747 23.0771 14.2701 23.8284 14.7014 24.544C15.1327 25.3311 15.564 26.0109 15.9953 26.7265ZM13.4794 17.603C12.9402 16.3508 12.5089 15.1343 12.1135 13.9179C13.3356 13.6316 14.6295 13.417 15.9953 13.2381C15.564 13.9179 15.0968 14.6334 14.7014 15.3848C14.2701 16.1361 13.8747 16.8874 13.4794 17.603ZM22.6806 7.90713C23.5433 8.83736 24.3699 9.83915 25.1607 10.8767C24.334 10.8409 23.5073 10.8052 22.6806 10.8052C21.854 10.8052 21.0273 10.8409 20.2006 10.8767C20.9913 9.83915 21.818 8.83736 22.6806 7.90713ZM30.6599 15.4205L29.3659 13.2739C30.7317 13.4527 32.0257 13.6674 33.2477 13.9536C32.8524 15.1343 32.421 16.3866 31.8819 17.6388C31.4865 16.8875 31.0912 16.1361 30.6599 15.4205ZM11.0712 9.62448C10.4602 5.86777 10.9634 3.22019 12.437 2.36151C12.7964 2.14684 13.2278 2.03951 13.695 2.03951C15.8516 2.03951 18.5472 3.79264 21.2429 6.44022C19.9849 7.79979 18.727 9.37403 17.5049 11.0914C15.4202 11.2703 13.4434 11.5923 11.5744 11.9858C11.3587 11.1629 11.215 10.3758 11.0712 9.62448ZM2.19341 20.0002C2.19341 18.3186 4.24214 16.5297 7.83638 15.2059C8.55523 14.9197 9.34597 14.6692 10.1367 14.4545C10.7118 16.2434 11.4306 18.1397 12.2933 20.0359C11.4306 21.9322 10.6758 23.7926 10.1367 25.5815C5.17664 24.1504 2.19341 22.0037 2.19341 20.0002ZM12.437 37.6388C10.9634 36.7801 10.4602 34.1325 11.0712 30.3758C11.179 29.6245 11.3587 28.8374 11.5744 28.0145C13.4434 28.4438 15.4202 28.73 17.5049 28.9089C18.727 30.6263 19.9849 32.1647 21.2429 33.5601C18.5832 36.1719 15.8875 37.9608 13.695 37.9608C13.2278 37.9608 12.7964 37.8535 12.437 37.6388ZM34.2901 30.3758C34.9011 34.1325 34.3979 36.7801 32.9242 37.6388C32.5648 37.8535 32.1335 37.9608 31.6663 37.9608C29.5097 37.9608 26.814 36.2077 24.1183 33.5601C25.3763 32.2005 26.6343 30.6263 27.8564 28.9089C29.941 28.73 31.9179 28.408 33.7869 28.0145C34.0025 28.8374 34.1463 29.6245 34.2901 30.3758ZM37.5249 24.7944C36.806 25.0807 36.0153 25.3311 35.2246 25.5458C34.6495 23.7569 33.9306 21.8606 33.068 19.9644C33.9306 18.0681 34.6854 16.2077 35.2246 14.4188C40.1846 15.8499 43.1678 17.9966 43.1678 20.0002C43.1678 21.6817 41.0832 23.4706 37.5249 24.7944Z" fill="#61DAFB"/>
</svg>
