<svg width="46" height="40" viewBox="0 0 46 40" fill="none" xmlns="http://www.w3.org/2000/svg">
<path id="React" d="M9.05843 30.0896C8.30364 34.8123 9.13031 38.1397 11.4306 39.4277C12.1135 39.8213 12.8683 40.0002 13.731 40.0002C16.2829 40.0002 19.4818 38.1397 22.6806 35.027C25.9155 38.1397 29.1143 40.0002 31.6303 40.0002C32.4929 40.0002 33.2477 39.8213 33.9306 39.4277C36.2309 38.1039 37.0576 34.7765 36.3028 30.0896M9.05843 30.0896L9.13231 30.1025C9.13234 30.1023 9.13237 30.1021 9.13241 30.1019M9.05843 30.0896C9.2022 29.2667 9.38191 28.408 9.59757 27.5493C8.73495 27.2989 7.90827 27.0127 7.11753 26.7264M9.05843 30.0896L9.13249 30.1014C9.13246 30.1016 9.13243 30.1018 9.13241 30.1019M9.13241 30.1019C8.75605 32.4571 8.77509 34.4584 9.17158 36.0283C9.56787 37.5973 10.3398 38.7309 11.4673 39.3623L11.4681 39.3627C12.1379 39.7487 12.8793 39.9252 13.731 39.9252C14.9895 39.9252 16.4143 39.466 17.9264 38.6155C19.4379 37.7652 21.0322 36.5264 22.6283 34.9732L22.6803 34.9226L22.7326 34.9729C24.3468 36.5262 25.9502 37.7652 27.4618 38.6155C28.9741 39.4662 30.3899 39.9252 31.6303 39.9252C32.482 39.9252 33.2234 39.7487 33.8932 39.3627L33.8932 39.3627C35.0214 38.7135 35.7934 37.5705 36.1897 36.0015C36.5862 34.4315 36.6052 32.4391 36.2288 30.1018M9.13241 30.1019C9.27587 29.2809 9.45517 28.4242 9.67031 27.5676L9.68792 27.4975L9.61848 27.4773C8.7584 27.2276 7.9337 26.9421 7.14379 26.6562M36.2288 30.1018C36.2289 30.102 36.2289 30.1023 36.229 30.1025L36.3028 30.0896M36.2288 30.1018C36.2288 30.1017 36.2288 30.1016 36.2288 30.1015L36.3028 30.0896M36.2288 30.1018C36.0854 29.2808 35.9061 28.4242 35.691 27.5676L35.6733 27.4975L35.7428 27.4773C36.6053 27.2269 37.4287 26.9774 38.2154 26.657L38.2169 26.6564C40.4578 25.7998 42.182 24.7847 43.3448 23.6583C44.5069 22.5325 45.1056 21.2986 45.1056 20.0002C45.1056 18.7017 44.5069 17.4678 43.3448 16.342C42.1821 15.2157 40.4581 14.2007 38.2176 13.3442M36.3028 30.0896C36.1591 29.2667 35.9794 28.408 35.7637 27.5493C36.6263 27.2989 37.453 27.0485 38.2437 26.7264C42.7365 25.0091 45.1806 22.6477 45.1806 20.0002C45.1806 17.3526 42.7365 14.9912 38.2437 13.2739M38.2176 13.3442C38.2178 13.3442 38.218 13.3443 38.2182 13.3444L38.2437 13.2739M38.2176 13.3442C38.2174 13.3441 38.2172 13.344 38.2169 13.3439L38.2437 13.2739M38.2176 13.3442C37.4276 13.0582 36.6029 12.7727 35.7428 12.523L35.6733 12.5028L35.691 12.4327C35.9061 11.5761 36.0854 10.7194 36.2289 9.89834M38.2437 13.2739C37.453 12.9876 36.6263 12.7014 35.7637 12.451C35.9794 11.5923 36.1591 10.7336 36.3028 9.91071M36.2289 9.89834C36.2288 9.89853 36.2288 9.89869 36.2288 9.89887L36.3028 9.91071M36.2289 9.89834C36.2289 9.89816 36.2289 9.89798 36.229 9.8978L36.3028 9.91071M36.2289 9.89834C36.6052 7.54319 36.5862 5.54185 36.1897 3.97201C35.7934 2.40296 35.0215 1.26937 33.894 0.638043L33.8932 0.63759C33.2234 0.251596 32.482 0.0751526 31.6303 0.0751526C30.3899 0.0751526 28.9741 0.534145 27.4618 1.38484C25.9502 2.23513 24.3468 3.47411 22.7326 5.02736L22.6806 5.0774L22.6286 5.02736C21.0144 3.47411 19.4111 2.23513 17.8995 1.38484C16.3871 0.534145 14.9713 0.0751526 13.731 0.0751526C12.8793 0.0751526 12.1379 0.251596 11.4681 0.637585L11.468 0.637608C10.3399 1.28683 9.56788 2.42977 9.17158 3.99884C8.77508 5.56872 8.75606 7.56111 9.13239 9.89828M36.3028 9.91071C37.0576 5.18799 36.2309 1.86062 33.9306 0.572603C33.2477 0.179043 32.4929 0.000152588 31.6303 0.000152588C29.1143 0.000152588 25.9155 1.86062 22.6806 4.97332C19.4458 1.86062 16.2469 0.000152588 13.731 0.000152588C12.8683 0.000152588 12.1135 0.179043 11.4306 0.572603C9.13031 1.8964 8.30364 5.22377 9.05843 9.91071M9.13239 9.89828C9.13237 9.89812 9.13234 9.89796 9.13231 9.8978L9.05843 9.91071M9.13239 9.89828C9.13242 9.89845 9.13245 9.89862 9.13247 9.89878L9.05843 9.91071M9.13239 9.89828C9.27586 10.7193 9.45517 11.5761 9.67031 12.4327L9.68792 12.5028L9.61848 12.523C8.75596 12.7734 7.9326 13.0229 7.14582 13.3433L7.14432 13.3439L7.14431 13.3439C4.90348 14.2005 3.17931 15.2156 2.01646 16.342C0.854398 17.4678 0.255634 18.7017 0.255634 20.0002C0.255634 21.2983 0.863098 22.5322 2.02984 23.6582C3.19715 24.7847 4.92121 25.7997 7.14379 26.6562M9.05843 9.91071C9.2022 10.7336 9.38191 11.5923 9.59757 12.451C8.73495 12.7014 7.90827 12.9519 7.11753 13.2739C2.62472 14.9912 0.180634 17.3526 0.180634 20.0002C0.180634 22.6477 2.66067 25.0091 7.11753 26.7264M7.14379 26.6562C7.14354 26.6561 7.14331 26.656 7.14306 26.6559L7.11753 26.7264M7.14379 26.6562C7.14402 26.6563 7.14426 26.6564 7.1445 26.6565L7.11753 26.7264M18.6495 12.9157L18.685 12.9129C20.0175 12.8053 21.3495 12.7695 22.7166 12.7695C24.1195 12.7695 25.4516 12.8053 26.7483 12.9129L26.7837 12.9158L26.8038 12.945C27.5957 14.0915 28.3157 15.2382 28.9638 16.3851C28.9639 16.3852 28.9639 16.3853 28.964 16.3854L18.6495 12.9157ZM18.6495 12.9157L18.6293 12.945M18.6495 12.9157L18.6293 12.945M18.6293 12.945C17.8382 14.0905 17.082 15.2374 16.4334 16.3851L18.6293 12.945ZM12.3989 2.29692C11.6354 2.74198 11.1342 3.64362 10.8987 4.89234C10.6629 6.14266 10.6908 7.75312 10.9972 9.63652L10.9972 9.63653L10.9975 9.63858C11.0112 9.70981 11.0248 9.78141 11.0385 9.85335C11.1692 10.5393 11.306 11.2574 11.5019 12.0049L11.52 12.0739L11.5899 12.0592C13.4565 11.6662 15.4303 11.3447 17.5113 11.1661L17.5459 11.1631L17.566 11.1349C18.7866 9.41959 20.0426 7.84794 21.298 6.49116L21.3474 6.43773L21.2955 6.38672C19.945 5.06032 18.5925 3.95594 17.3054 3.18273C16.0193 2.4101 14.7925 1.96451 13.695 1.96451C13.2165 1.96451 12.7716 2.0744 12.3989 2.29692ZM12.3989 2.29692C12.399 2.29685 12.3991 2.29678 12.3993 2.29671L12.437 2.36151L12.3986 2.29712C12.3987 2.29705 12.3988 2.29699 12.3989 2.29692ZM12.3989 37.7034C12.7716 37.9259 13.2165 38.0358 13.695 38.0358C14.8106 38.0358 16.0464 37.5812 17.3325 36.8041C18.6196 36.0264 19.9631 34.922 21.2955 33.6136L21.3468 33.5632L21.2986 33.5099C20.0424 32.1164 18.7862 30.5802 17.566 28.8654L17.5459 28.8372L17.5113 28.8342C15.4294 28.6555 13.4561 28.3698 11.5912 27.9414L11.5203 27.9251L11.5019 27.9955C11.2859 28.8193 11.1055 29.6093 10.9971 30.3645C10.6908 32.2476 10.6629 33.8578 10.8987 35.108C11.1342 36.3567 11.6354 37.2583 12.3989 37.7034ZM12.3989 37.7034C12.3988 37.7033 12.3987 37.7033 12.3986 37.7032L12.437 37.6388M12.3989 37.7034C12.399 37.7035 12.3991 37.7035 12.3993 37.7036L12.437 37.6388M12.437 37.6388C12.7964 37.8535 13.2278 37.9608 13.695 37.9608C15.8875 37.9608 18.5832 36.1719 21.2429 33.5601C19.9849 32.1647 18.727 30.6263 17.5049 28.9089L12.437 37.6388ZM32.9623 37.7034C33.7258 37.2583 34.2271 36.3567 34.4626 35.108C34.6984 33.8576 34.6704 32.2472 34.3641 30.3638L34.3637 30.3617C34.3501 30.2906 34.3365 30.219 34.3228 30.1471C34.1921 29.4611 34.0553 28.743 33.8594 27.9955L33.8413 27.9264L33.7714 27.9411C31.9048 28.3341 29.931 28.6556 27.8499 28.8342L27.8154 28.8372L27.7952 28.8654C26.5747 30.5807 25.3187 32.1524 24.0633 33.5091L24.0138 33.5626L24.0658 33.6136C25.4163 34.94 26.7688 36.0444 28.0558 36.8176C29.342 37.5902 30.5688 38.0358 31.6663 38.0358C32.1447 38.0358 32.5896 37.9259 32.9623 37.7034ZM32.9623 37.7034C32.9625 37.7033 32.9626 37.7033 32.9627 37.7032L32.9242 37.6388L32.962 37.7036C32.9621 37.7035 32.9622 37.7035 32.9623 37.7034ZM33.7701 12.0589L33.841 12.0752L33.8594 12.0049C34.0753 11.181 34.2558 10.3911 34.3642 9.63595C34.6704 7.7528 34.6984 6.14253 34.4626 4.89234C34.2271 3.64362 33.7258 2.74197 32.9623 2.29691C32.5896 2.0744 32.1447 1.96451 31.6663 1.96451C30.5507 1.96451 29.3148 2.41913 28.0287 3.19625C26.7417 3.97394 25.3982 5.0783 24.0658 6.38671L24.0145 6.43707L24.0626 6.49044C25.3189 7.88388 26.575 9.4201 27.7952 11.1349L27.8154 11.1631L27.8499 11.1661C29.9319 11.3448 31.9052 11.6305 33.7701 12.0589ZM28.964 23.6149L28.9641 23.6147L16.4332 23.6149C16.4333 23.615 16.4333 23.6151 16.4334 23.6152C17.0815 24.7621 17.8015 25.9088 18.5934 27.0553L18.6135 27.0845L18.6489 27.0874C19.9456 27.195 21.2777 27.2308 22.6806 27.2308C24.0477 27.2308 25.3797 27.195 26.7122 27.0874L26.7477 27.0846L26.7679 27.0553C27.5591 25.9097 28.3154 24.7627 28.964 23.6149ZM31.9508 22.3676L31.8903 22.2271L31.8163 22.361C31.677 22.6131 31.538 22.8691 31.3976 23.1277C31.1384 23.605 30.8744 24.0912 30.5948 24.5782L30.5948 24.5782L30.5935 24.5806C30.2479 25.2373 29.8472 25.8666 29.4621 26.4713C29.4086 26.5554 29.3553 26.6389 29.3026 26.722L29.2167 26.8574L29.3757 26.8366C30.743 26.6575 32.0396 26.4424 33.2648 26.1555L33.3443 26.1369L33.319 26.0593C32.9233 24.8415 32.4912 23.6227 31.9508 22.3676ZM22.6256 32.1442L22.6806 32.2035L22.7356 32.1442C23.6002 31.2118 24.4284 30.2081 25.2203 29.169L25.3173 29.0417L25.1574 29.0487C24.3305 29.0844 23.5054 29.1201 22.6806 29.1201C21.8558 29.1201 21.0308 29.0844 20.2038 29.0487L20.0439 29.0417L20.1409 29.169C20.9328 30.2081 21.761 31.2118 22.6256 32.1442ZM15.9856 26.8008L16.1399 26.821L16.0596 26.6877C15.9513 26.5081 15.8432 26.331 15.7352 26.1541C15.412 25.6245 15.0897 25.0966 14.7672 24.5079L14.7672 24.5079L14.7656 24.5053C14.4475 23.9775 14.1493 23.4307 13.8552 22.8916C13.7515 22.7014 13.6483 22.5123 13.545 22.3252L13.471 22.1913L13.4105 22.3319C12.87 23.5872 12.4379 24.842 12.0424 26.0228L12.0163 26.1009L12.0964 26.1197C13.3217 26.4067 14.6183 26.6217 15.9856 26.8008ZM13.4105 17.6327L13.471 17.7732L13.545 17.6393C13.6843 17.3872 13.8232 17.1313 13.9636 16.8727C14.2228 16.3954 14.4868 15.9092 14.7664 15.4221L14.7665 15.4221L14.7678 15.4197C15.1133 14.763 15.5141 14.1337 15.8992 13.529C15.9527 13.4449 16.0059 13.3614 16.0587 13.2783L16.1445 13.1429L15.9856 13.1637C14.6183 13.3428 13.3217 13.5579 12.0964 13.8448L12.017 13.8634L12.0422 13.941C12.438 15.1588 12.8701 16.3776 13.4105 17.6327ZM22.7356 7.85613L22.6806 7.79683L22.6256 7.85613C21.761 8.78849 20.9328 9.7922 20.1409 10.8313L20.0439 10.9586L20.2038 10.9516C21.0308 10.9159 21.8558 10.8802 22.6806 10.8802C23.5054 10.8802 24.3305 10.9159 25.1574 10.9516L25.3173 10.9586L25.2203 10.8313C24.4284 9.7922 23.6002 8.78849 22.7356 7.85613ZM29.3757 13.1995L29.2214 13.1793L29.3017 13.3126L30.5956 15.4593C31.0256 16.1726 31.42 16.922 31.8155 17.6737L31.8887 17.8127L31.9508 17.6685C32.4913 16.4131 32.9234 15.1583 33.3188 13.9775L33.345 13.8994L33.2648 13.8806C32.0396 13.5936 30.743 13.3786 29.3757 13.1995ZM10.2081 14.4316L10.1862 14.3634L10.1171 14.3822C9.3248 14.5972 8.53155 14.8484 7.80956 15.1358C6.00777 15.7995 4.58856 16.5814 3.61829 17.4119C2.64916 18.2413 2.11841 19.1279 2.11841 20.0002C2.11841 21.0397 2.89033 22.0968 4.26173 23.0668C5.63668 24.0392 7.63106 24.9367 10.1159 25.6536L10.1871 25.6742L10.2085 25.6032C10.7463 23.8188 11.4996 21.9617 12.3615 20.067L12.3756 20.0359L12.3615 20.0049C11.5002 18.1114 10.7824 16.2179 10.2081 14.4316ZM35.1532 25.5687L35.1751 25.6369L35.2442 25.6181C36.0365 25.4031 36.8298 25.1519 37.5518 24.8644C39.3356 24.2007 40.7547 23.4189 41.7294 22.5886C42.7027 21.7594 43.2429 20.8728 43.2429 20.0002C43.2429 18.9606 42.4709 17.9035 41.0995 16.9336C39.7246 15.9611 37.7302 15.0637 35.2453 14.3467L35.1741 14.3261L35.1528 14.3971C34.615 16.1816 33.8616 18.0386 32.9997 19.9333L32.9856 19.9644L32.9997 19.9954C33.8611 21.8889 34.5789 23.7824 35.1532 25.5687ZM26.7031 20.0002C26.7031 22.211 24.9025 24.0039 22.6806 24.0039C20.4588 24.0039 18.6582 22.211 18.6582 20.0002C18.6582 17.7893 20.4588 15.9964 22.6806 15.9964C24.9025 15.9964 26.7031 17.7893 26.7031 20.0002Z" fill="#61DAFB" stroke="black" stroke-width="0.15"/>
</svg>
