<svg width="54" height="40" viewBox="0 0 54 40" fill="none" xmlns="http://www.w3.org/2000/svg">
<path id="Sass" fill-rule="evenodd" clip-rule="evenodd" d="M0.494873 16.6797C0.494873 16.9791 0.58305 17.1768 0.632463 17.3689C0.954501 18.6183 1.64671 19.6905 2.46799 20.6685C3.63772 22.0623 5.07028 23.1843 6.53777 24.2395C7.81059 25.1545 9.10939 26.049 10.3873 26.9572C10.6067 27.1131 10.8141 27.2924 11.0523 27.4837C10.8474 27.5945 10.677 27.692 10.4998 27.7819C8.81333 28.6372 7.19079 29.5961 5.69519 30.7578C4.79382 31.4581 3.92228 32.2022 3.30674 33.1747C2.31635 34.7389 1.96577 36.4053 2.70398 38.1846C2.91953 38.7043 3.24838 39.1533 3.71227 39.4851C3.86264 39.5925 4.03133 39.699 4.20725 39.7407C4.65794 39.8468 5.11714 39.9162 5.57336 40.0002L6.86534 39.9993C8.29407 39.8719 9.59457 39.3825 10.7698 38.5714C12.6066 37.3037 13.8441 35.6041 14.3762 33.4227C14.7629 31.8372 14.7787 30.25 14.3229 28.6717C14.2793 28.5255 14.229 28.3814 14.1721 28.2398C14.1167 28.098 14.0516 27.9599 13.9749 27.7832L16.9039 26.0989L16.9478 26.1363C16.8945 26.3106 16.8379 26.4844 16.7897 26.6603C16.4417 27.9314 16.2104 29.2247 16.2935 30.5439C16.3821 31.9496 16.7744 33.2655 17.5974 34.4399C18.2628 35.3898 19.8482 35.4252 20.5554 34.4718C20.8063 34.1332 21.0495 33.7792 21.2322 33.4014C21.7098 32.4152 22.1519 31.4116 22.6081 30.4148L22.6878 30.2325C22.655 30.7045 22.6167 31.119 22.5992 31.5339C22.5719 32.1818 22.6098 32.8259 22.8314 33.4423C23.0209 33.9696 23.3434 34.3636 23.9474 34.4331C24.3606 34.4804 24.6899 34.2912 24.9936 34.0514C25.4641 33.6796 25.8541 33.2159 26.1399 32.6887C26.9497 31.2016 27.7812 29.7235 28.5152 28.1989C29.3092 26.55 30.0035 24.8529 30.7409 23.1758L30.8627 22.8785C31.0369 23.563 31.1583 24.2335 31.382 24.8682C31.6418 25.6047 31.9634 26.3238 32.3136 27.0228C32.4793 27.3529 32.4601 27.5672 32.2305 27.8441C31.2695 29.0027 30.3251 30.1754 29.3799 31.3469C29.1707 31.6054 28.9624 31.8687 28.7882 32.1511C28.6825 32.3295 28.613 32.5269 28.5837 32.7321C28.5544 32.9211 28.5994 33.1141 28.7092 33.2706C28.819 33.4271 28.9852 33.535 29.1729 33.5717C29.5516 33.6533 29.9399 33.681 30.3264 33.654C31.6456 33.5568 32.8435 33.0938 33.9025 32.3092C35.2745 31.2928 35.715 29.9058 35.3827 28.262C35.2929 27.816 35.134 27.3823 34.9793 26.9525C34.9099 26.7587 34.9052 26.6228 35.0317 26.4422C36.1286 24.8759 37.0658 23.2141 37.9373 21.5141C37.9718 21.4472 38.0072 21.3803 38.0677 21.3088C38.3501 22.7784 38.7752 24.1947 39.5369 25.4799C39.1484 25.8543 38.7637 26.1938 38.4157 26.5679C37.6494 27.3917 36.9848 28.2862 36.6381 29.3772C36.489 29.8474 36.3744 30.3254 36.4409 30.8276C36.5439 31.6076 37.1829 32.1145 37.9501 31.9369C39.5918 31.5569 41.009 30.7833 42.0446 29.4129C42.7415 28.4903 42.8049 27.4611 42.5131 26.383C42.4331 26.0899 42.3381 25.8015 42.2358 25.4654C42.6409 25.3398 43.0358 25.189 43.4443 25.0957C45.5653 24.6118 47.6632 24.6961 49.707 25.462C50.9002 25.9093 51.8642 26.6577 52.4358 27.8351C53.134 29.2745 52.7481 30.6402 51.3913 31.5501C51.2648 31.6348 51.12 31.7017 51.0152 31.8078C50.9816 31.8467 50.9565 31.8922 50.9415 31.9413C50.9265 31.9904 50.9218 32.0422 50.9279 32.0932C50.9368 32.1456 51.0753 32.2112 51.1549 32.2103C51.6009 32.2069 51.9626 31.9731 52.3097 31.7328C53.1796 31.1309 53.8143 30.3211 53.951 29.2549L53.9779 29.1748L53.9451 28.4805C53.9319 28.4404 53.9549 28.4008 53.9519 28.3706C53.767 26.8179 52.9376 25.6137 51.7313 24.6697C50.3341 23.5771 48.6843 23.1272 46.9395 23.0561C45.5244 22.9952 44.1111 23.2127 42.7798 23.6963C42.3977 23.8348 42.019 23.9988 41.6348 24.1534C41.5832 24.0601 41.5279 23.9707 41.4823 23.8782C41.0878 23.0706 40.6099 22.2987 40.5042 21.3726C40.4293 20.7149 40.3373 20.0581 40.4936 19.4076C40.644 18.7819 40.8399 18.1668 41.0244 17.5495C41.1194 17.2317 41.0525 17.0537 40.7492 16.9105C40.6435 16.8578 40.5307 16.8208 40.4144 16.8006C39.6689 16.6924 38.9337 16.7542 38.2116 16.9642C37.9561 17.0388 37.7703 17.1819 37.7137 17.4647C37.6813 17.627 37.6153 17.7825 37.5693 17.9427C37.3806 18.6085 37.2468 19.2871 36.9418 19.9213C36.1776 21.5124 35.3052 23.0433 34.4124 24.5632C34.3157 24.7272 34.2139 24.8882 34.092 25.0872C33.7785 24.4312 33.4441 23.8425 33.3427 23.1524C33.2281 22.372 33.1378 21.5929 33.3321 20.8185C33.4765 20.2408 33.6652 19.6739 33.839 19.1039C33.9212 18.833 33.8833 18.6907 33.6379 18.548C33.514 18.476 33.3738 18.4121 33.2341 18.3912C32.4697 18.2748 31.6887 18.3387 30.9534 18.5778C30.7221 18.6528 30.6007 18.8023 30.53 19.0409C30.3221 19.7446 30.1449 20.4653 29.8531 21.1345C28.6715 23.8437 27.4557 26.5389 26.2413 29.2336C25.9878 29.7963 25.6909 30.3394 25.4051 30.8872C25.3327 31.0261 25.227 31.1484 25.1367 31.2787C25.0643 31.1931 25.0362 31.1343 25.0366 31.0755C25.0388 30.7292 24.9974 30.3727 25.0635 30.0379C25.2662 29.0252 25.4903 28.017 25.7357 27.0138C25.9359 26.1849 26.1689 25.3636 26.3908 24.5402C26.4654 24.2646 26.4666 24.0069 26.2686 23.7752C25.9359 23.3871 25.2407 23.3019 24.8283 23.6009L24.646 23.704L24.6814 23.4101C24.7683 22.7801 24.7857 22.1522 24.6128 21.5315C24.3972 20.758 23.8452 20.3128 23.0426 20.3375C22.6686 20.349 22.2759 20.4129 21.9296 20.5492C20.4731 21.12 19.3533 22.1309 18.3999 23.347C18.3115 23.46 18.202 23.5546 18.0775 23.6256C16.8451 24.3089 15.6089 24.9836 14.3732 25.6609L12.9977 26.4145C12.6288 26.0626 12.2936 25.6976 11.9132 25.3879C10.7515 24.4405 9.57115 23.5166 8.40141 22.5799C7.36459 21.7496 6.36014 20.8849 5.59168 19.7855C5.02002 18.9676 4.65155 18.0726 4.61619 17.0613C4.57146 15.7728 4.93695 14.5954 5.59295 13.4993C6.43213 12.097 7.57673 10.9716 8.83506 9.95223C10.1662 8.87451 11.606 7.95951 13.0982 7.12418C15.1859 5.95572 17.3333 4.92145 19.6357 4.23861C21.9964 3.53831 24.3917 3.13747 26.8624 3.41691C27.8336 3.52681 28.7767 3.74917 29.6427 4.22413C30.306 4.58749 30.8499 5.0633 31.103 5.80706C31.3526 6.53888 31.3449 7.28051 31.172 8.02384C30.8205 9.52923 29.9963 10.7701 28.959 11.8789C27.2577 13.6966 25.1823 14.934 22.8458 15.7515C21.5024 16.2221 20.1047 16.5202 18.6862 16.6388C17.5237 16.7363 16.3855 16.6332 15.2848 16.229C14.5559 15.961 13.9212 15.5513 13.4109 14.9566C13.3197 14.8501 13.203 14.7347 13.0331 14.8343C12.8665 14.9323 12.8371 15.0908 12.8929 15.2514C12.9862 15.518 13.0722 15.7958 13.2175 16.0343C13.5826 16.6328 14.115 17.0669 14.7012 17.4392C15.827 18.1553 17.0854 18.3959 18.3901 18.4517C20.3701 18.5374 22.3019 18.2417 24.2064 17.7105C26.9254 16.9523 29.2896 15.613 31.1856 13.5002C32.7643 11.7409 33.8918 9.75543 34.1333 7.35804C34.2513 6.18788 34.1257 5.04158 33.5779 3.97408C32.9836 2.81756 32.0388 1.95751 30.9091 1.36498C29.264 0.502378 27.4885 0.000152588 25.656 0.000152588H23.82C21.6007 0.000152588 19.4551 0.636135 17.3695 1.3948C15.7908 1.96944 14.2428 2.64759 12.74 3.39816C9.46721 5.03348 6.41935 7.00533 3.91589 9.71667C2.66863 11.0674 1.61263 12.5579 1.00519 14.3129C0.821855 14.8369 0.663918 15.3694 0.531933 15.9087M12.3907 31.2493C12.2488 33.1488 11.3879 34.6887 9.98093 35.9359C9.18947 36.6371 8.28172 37.1363 7.22444 37.3118C6.84106 37.3753 6.44874 37.3906 6.07686 37.2317C5.54652 37.0051 5.42768 36.5344 5.41745 36.033C5.40169 35.2339 5.68156 34.5115 6.06536 33.8239C6.56631 32.9277 7.30069 32.2444 8.08491 31.6063C9.32024 30.6006 10.6604 29.7495 12.0329 28.9461L12.1364 28.9035C12.3485 29.6873 12.4495 30.4613 12.3907 31.2493ZM23.1074 22.9943C23.0073 23.6009 22.882 24.2079 22.7048 24.7958C22.0923 26.8307 21.3055 28.8025 20.4548 30.748C20.2976 31.1079 20.0689 31.4363 19.87 31.7775C19.8361 31.83 19.7956 31.8778 19.7494 31.9198C19.5032 32.163 19.2698 32.1503 19.1454 31.8321C19.0005 31.4623 18.9115 31.0666 18.8348 30.6751C18.7833 30.4123 18.7957 30.1363 18.7795 29.867C18.7961 27.9527 19.3801 26.213 20.3709 24.5935C20.7794 23.9255 21.2241 23.2891 21.9036 22.8665C22.1149 22.7351 22.3436 22.6339 22.583 22.5658C22.9451 22.464 23.1674 22.6314 23.1074 22.9943ZM30.4188 32.3096L33.0467 29.2413C33.1562 30.3808 31.2192 32.6555 30.4188 32.3096ZM38.8118 30.2449C38.6261 30.3514 38.4238 30.428 38.2334 30.5264C38.0591 30.6168 38.0016 30.5256 37.9965 30.3756C37.994 30.2719 38.0073 30.1683 38.0361 30.0685C38.391 28.817 39.044 27.7487 40.0157 26.8797L40.0838 26.8447C40.546 28.1376 40.0118 29.5574 38.8118 30.2449Z" fill="#CB6699"/>
</svg>
