<svg width="31" height="40" viewBox="0 0 31 40" fill="none" xmlns="http://www.w3.org/2000/svg">
<g id="SQL">
<path d="M15.3016 10.9175C6.97273 10.9175 0.219482 8.56529 0.219482 5.45966V34.5406C0.219482 37.5291 6.85527 39.9525 15.0895 40.0002H15.3016C23.6305 40.0002 30.3838 37.6466 30.3838 34.5406V5.45966C30.3838 8.49449 23.6305 10.9175 15.3016 10.9175Z" fill="url(#paint0_linear_4_154)"/>
<path d="M30.3838 5.45966C30.3838 8.49449 23.6305 10.9175 15.3016 10.9175C6.97273 10.9175 0.219482 8.56529 0.219482 5.45966C0.219482 2.3537 6.97273 0.000152588 15.3016 0.000152588C23.6305 0.000152588 30.3838 2.3537 30.3838 5.45966Z" fill="#E8E8E8"/>
<path d="M26.8784 5.01231C26.8784 6.942 21.6777 8.49449 15.3016 8.49449C8.92558 8.49449 3.72482 6.942 3.72482 5.01231C3.72482 3.08262 8.92558 1.55363 15.3016 1.55363C21.6777 1.55363 26.8784 3.10579 26.8784 5.01231Z" fill="#50E6FF"/>
<path d="M15.3016 5.88219C12.1962 5.80339 9.10031 6.25719 6.14818 7.22391C9.10306 8.17284 12.2 8.60272 15.3016 8.49449C18.4095 8.58522 21.5088 8.12308 24.4551 7.12961C21.4944 6.20811 18.4009 5.78653 15.3016 5.88219Z" fill="#198AB3"/>
<path d="M24.4782 25.6469V17.6479H22.3599V27.3649H28.149V25.6469H24.4782ZM7.67849 21.7177C7.24117 21.5419 6.83557 21.2956 6.47773 20.9888C6.38287 20.8884 6.30906 20.77 6.26064 20.6406C6.21223 20.5112 6.19019 20.3734 6.19582 20.2354C6.18865 20.0973 6.2174 19.9597 6.27928 19.836C6.34116 19.7123 6.43404 19.6067 6.54887 19.5296C6.83844 19.3294 7.18587 19.23 7.53754 19.2467C8.37539 19.2095 9.20219 19.4492 9.89009 19.929V17.9063C9.13871 17.6258 8.33893 17.4979 7.53754 17.5301C6.61428 17.4806 5.70391 17.7641 4.9719 18.3289C4.65309 18.5749 4.39732 18.8931 4.22565 19.2574C4.05399 19.6217 3.97136 20.0215 3.98456 20.424C3.98456 21.6234 4.73665 22.5645 6.33711 23.2702C6.85659 23.4913 7.34629 23.7755 7.79629 24.1179C7.90627 24.2102 7.9948 24.3253 8.05572 24.4552C8.11664 24.5852 8.14847 24.7268 8.149 24.8704C8.149 25.1612 8.00805 25.4325 7.77279 25.6006C7.45206 25.7877 7.08384 25.8775 6.71299 25.859C5.76665 25.8511 4.85539 25.4998 4.14867 24.8704V27.0585C4.92569 27.4595 5.79279 27.654 6.66667 27.6233C7.65269 27.6815 8.62977 27.4089 9.44274 26.8464C9.72973 26.5746 9.94939 26.2397 10.0843 25.8682C10.2191 25.4967 10.2655 25.0988 10.2196 24.7062C10.2311 24.1039 10.0219 23.5182 9.63134 23.0595C9.08157 22.4804 8.41625 22.0232 7.67849 21.7177ZM20.0077 25.4583C20.5419 24.5639 20.8112 23.5361 20.7843 22.4947C20.731 21.6126 20.4645 20.7566 20.0077 20.0002C19.6404 19.2656 19.0685 18.6529 18.3609 18.2359C17.6436 17.829 16.832 17.6177 16.0074 17.6231C15.1187 17.604 14.2411 17.8236 13.4662 18.2591C12.7398 18.6643 12.1439 19.2682 11.7486 20.0002C11.3321 20.8319 11.1224 21.7518 11.1372 22.6819C11.1418 23.4996 11.3351 24.3051 11.702 25.0358C12.0612 25.7623 12.6256 26.3675 13.3253 26.7766C14.036 27.2095 14.8461 27.4525 15.6778 27.4823L17.7018 29.8349H20.549L17.6538 27.2474C18.6288 26.9549 19.4649 26.3194 20.0077 25.4583ZM17.6538 24.8704C17.4399 25.1364 17.1671 25.3493 16.8569 25.4921C16.5468 25.635 16.2077 25.7039 15.8664 25.6936C15.5224 25.7049 15.1807 25.634 14.8696 25.4868C14.5585 25.3395 14.287 25.1201 14.0777 24.8469C13.5813 24.1672 13.3396 23.3345 13.3951 22.4947C13.341 21.6545 13.5825 20.8219 14.0777 20.1411C14.2991 19.868 14.5789 19.6481 14.8965 19.4975C15.2142 19.3469 15.5616 19.2695 15.9131 19.2709C16.2568 19.2557 16.5988 19.3275 16.9074 19.4796C17.2161 19.6317 17.4813 19.8593 17.6787 20.1411C18.1418 20.8351 18.3647 21.6619 18.3133 22.4947C18.396 23.341 18.1609 24.1878 17.6538 24.8704Z" fill="url(#paint1_radial_4_154)"/>
</g>
<defs>
<linearGradient id="paint0_linear_4_154" x1="0.219408" y1="19.9997" x2="30.3838" y2="19.9997" gradientUnits="userSpaceOnUse">
<stop stop-color="#005BA1"/>
<stop offset="0.07" stop-color="#0060A9"/>
<stop offset="0.36" stop-color="#0071C8"/>
<stop offset="0.52" stop-color="#0078D4"/>
<stop offset="0.64" stop-color="#0074CD"/>
<stop offset="0.82" stop-color="#006ABB"/>
<stop offset="1" stop-color="#005BA1"/>
</linearGradient>
<radialGradient id="paint1_radial_4_154" cx="0" cy="0" r="1" gradientUnits="userSpaceOnUse" gradientTransform="translate(17243 5551.79) scale(12477.6 3236.57)">
<stop stop-color="#F2F2F2"/>
<stop offset="0.58" stop-color="#EEEEEE"/>
<stop offset="1" stop-color="#E6E6E6"/>
</radialGradient>
</defs>
</svg>
