<svg width="33" height="32" viewBox="0 0 33 32" fill="none" xmlns="http://www.w3.org/2000/svg">
<g id="Vector">
<path d="M0.878708 4.73334e-05C0.824998 0.00100822 0.772194 0.0140539 0.724216 0.0382159C0.676238 0.0623779 0.634318 0.097036 0.601568 0.139617C0.568818 0.182198 0.54608 0.231608 0.53504 0.28418C0.524 0.336752 0.524943 0.391135 0.537798 0.443292L8.26655 31.7277C8.28156 31.7887 8.31237 31.8447 8.35588 31.89C8.3994 31.9354 8.45408 31.9684 8.51443 31.9859C8.57477 32.0034 8.63866 32.0046 8.69965 31.9896C8.76065 31.9745 8.8166 31.9436 8.86188 31.9001L32.1128 9.53505C32.1581 9.49151 32.1911 9.43681 32.2086 9.37645C32.226 9.31608 32.2272 9.25219 32.2122 9.1912C32.1971 9.13021 32.1662 9.07426 32.1226 9.02901C32.079 8.98375 32.0242 8.95077 31.9639 8.93339L0.983578 0.0139878C0.949506 0.00416862 0.914162 -0.000529495 0.878708 4.73334e-05ZM1.38057 0.872598L31.1702 9.44919L8.81277 30.9547L1.38057 0.872598Z" fill="#373B3D"/>
<path d="M16.3774 4.46038C16.3303 4.45936 16.2835 4.46766 16.2396 4.48478C16.1957 4.50191 16.1557 4.52753 16.1217 4.56018L4.50166 15.7459C4.45644 15.7894 4.42348 15.8441 4.40611 15.9045C4.38873 15.9648 4.38754 16.0287 4.40267 16.0896C4.41779 16.1506 4.44869 16.2065 4.49226 16.2517C4.53584 16.2969 4.59054 16.3298 4.65089 16.3472L20.1309 20.8088C20.1912 20.8262 20.255 20.8274 20.3159 20.8124C20.3768 20.7973 20.4327 20.7664 20.4779 20.7229C20.5232 20.6794 20.5562 20.6248 20.5736 20.5645C20.5911 20.5043 20.5923 20.4404 20.5773 20.3795L16.7174 4.73222C16.6985 4.65583 16.655 4.58779 16.5935 4.53864C16.532 4.4895 16.4561 4.46199 16.3774 4.46038ZM16.1712 5.50592L19.7349 19.9502L5.44455 15.8314L16.1712 5.50592Z" fill="#373B3D"/>
<path d="M10.6038 9.99636C10.5501 9.99732 10.4973 10.0104 10.4493 10.0345C10.4013 10.0587 10.3594 10.0933 10.3267 10.1359C10.2939 10.1785 10.2712 10.2279 10.2601 10.2805C10.2491 10.3331 10.25 10.3874 10.2629 10.4396L12.181 18.2118C12.196 18.2728 12.2268 18.3288 12.2704 18.3741C12.314 18.4195 12.3687 18.4525 12.4291 18.47C12.4895 18.4874 12.5534 18.4886 12.6144 18.4735C12.6754 18.4584 12.7314 18.4274 12.7766 18.3838L18.5499 12.8193C18.5951 12.7757 18.6281 12.721 18.6454 12.6606C18.6628 12.6003 18.6639 12.5364 18.6488 12.4755C18.6336 12.4145 18.6027 12.3586 18.5591 12.3134C18.5155 12.2682 18.4607 12.2353 18.4004 12.218L10.7087 10.0103C10.6746 10.0005 10.6393 9.99578 10.6038 9.99636ZM11.1054 10.868L17.6073 12.7341L12.7266 17.4377L11.1054 10.868Z" fill="#373B3D"/>
<path d="M8.69903 2.23275C8.65191 2.23177 8.60507 2.24012 8.5612 2.2573C8.51732 2.27448 8.47727 2.30016 8.44335 2.33287L2.67006 7.89704C2.62485 7.94063 2.5919 7.99536 2.57454 8.05572C2.55719 8.11608 2.55603 8.17994 2.57119 8.2409C2.58634 8.30185 2.61728 8.35773 2.66089 8.40293C2.7045 8.44813 2.75924 8.48105 2.81961 8.49838L10.51 10.7064C10.5703 10.7237 10.6341 10.7249 10.6951 10.7098C10.756 10.6947 10.8118 10.6638 10.857 10.6202C10.9022 10.5767 10.9352 10.5221 10.9526 10.4618C10.97 10.4015 10.9712 10.3377 10.9561 10.2768L9.03899 2.50491C9.02023 2.42839 8.97675 2.36021 8.91527 2.31094C8.8538 2.26167 8.77779 2.23439 8.69903 2.23275ZM8.49309 3.27829L10.1134 9.84808L3.61295 7.98195L8.49309 3.27829ZM24.0814 6.6633C24.0344 6.66237 23.9876 6.67073 23.9438 6.68791C23.9 6.70509 23.86 6.73075 23.8261 6.76342L18.0522 12.3273C18.0069 12.3709 17.9739 12.4256 17.9565 12.486C17.939 12.5464 17.9379 12.6103 17.953 12.6713C17.9682 12.7323 17.9992 12.7883 18.0428 12.8335C18.0865 12.8787 18.1413 12.9116 18.2017 12.9289L25.8925 15.1366C25.9528 15.1539 26.0166 15.1551 26.0775 15.14C26.1384 15.1249 26.1942 15.094 26.2394 15.0505C26.2846 15.007 26.3176 14.9523 26.335 14.892C26.3524 14.8317 26.3536 14.7679 26.3385 14.707L24.4217 6.93514C24.4029 6.85864 24.3593 6.79049 24.2978 6.74128C24.2363 6.69206 24.1602 6.66486 24.0814 6.6633ZM23.8755 7.70884L25.4958 14.279L18.9954 12.4128L23.8755 7.70884ZM12.5143 17.7749C12.4265 17.7782 12.3431 17.8137 12.2798 17.8747L6.50656 23.4391C6.46134 23.4827 6.4284 23.5375 6.41104 23.5978C6.39368 23.6582 6.39253 23.722 6.40768 23.783C6.42284 23.844 6.45378 23.8998 6.49739 23.945C6.541 23.9902 6.59574 24.0232 6.65611 24.0405L14.3481 26.2482C14.4084 26.2654 14.4721 26.2665 14.5329 26.2514C14.5937 26.2362 14.6495 26.2054 14.6947 26.1619C14.7398 26.1184 14.7727 26.0639 14.7902 26.0037C14.8076 25.9434 14.8089 25.8797 14.7939 25.8189L12.8755 18.0467C12.8558 17.9667 12.8091 17.896 12.7433 17.8465C12.6775 17.797 12.5966 17.7717 12.5143 17.7749ZM12.3299 18.8204L13.9514 25.3905L7.44945 23.5244L12.3299 18.8204Z" fill="#373B3D"/>
</g>
</svg>
