<svg width="33" height="32" viewBox="0 0 33 32" fill="none" xmlns="http://www.w3.org/2000/svg">
<g id="Vector">
<path d="M32.1167 4.73587L17.085 31.5823C16.7744 32.1366 15.977 32.1398 15.6622 31.5885L0.332183 4.73901C-0.011409 4.13736 0.502802 3.40947 1.18554 3.531L16.2335 6.217C16.3295 6.23451 16.4279 6.23451 16.5239 6.217L31.2568 3.53518C31.9367 3.41156 32.454 4.13344 32.1167 4.73587Z" fill="url(#paint0_linear_13_90)"/>
<path d="M23.401 0.00786347L12.2778 2.18447C12.1891 2.2018 12.1086 2.24809 12.049 2.31606C11.9894 2.38404 11.9541 2.46986 11.9486 2.56005L11.2638 14.1038C11.2601 14.1671 11.2713 14.2304 11.2963 14.2887C11.3214 14.3469 11.3596 14.3986 11.4081 14.4395C11.4566 14.4804 11.514 14.5095 11.5757 14.5245C11.6374 14.5394 11.7017 14.5398 11.7636 14.5256L14.8609 13.8108C14.9276 13.7955 14.9971 13.7972 15.063 13.8157C15.1289 13.8341 15.1891 13.8689 15.2381 13.9166C15.287 13.9644 15.3232 14.0237 15.3433 14.089C15.3633 14.1544 15.3666 14.2237 15.3529 14.2907L14.4326 18.791C14.4185 18.8603 14.4227 18.932 14.4447 18.9992C14.4667 19.0664 14.5058 19.1267 14.5582 19.1742C14.6105 19.2218 14.6743 19.2549 14.7434 19.2705C14.8124 19.286 14.8843 19.2833 14.952 19.2628L16.8644 18.6818C17.1609 18.5919 17.4461 18.8522 17.3838 19.1554L15.921 26.2244C15.8299 26.6666 16.4187 26.9076 16.6642 26.5286L16.8278 26.2756L25.8925 8.20778C26.0448 7.9046 25.7824 7.55961 25.4503 7.6239L22.2616 8.23862C22.193 8.25194 22.1221 8.24741 22.0558 8.22547C21.9894 8.20354 21.9298 8.16493 21.8827 8.11336C21.8356 8.06179 21.8026 7.99899 21.7867 7.93099C21.7709 7.86299 21.7729 7.79207 21.7924 7.72505L23.8728 0.521436C23.8924 0.454174 23.8943 0.383013 23.8783 0.314814C23.8623 0.246615 23.829 0.183678 23.7816 0.132069C23.7342 0.0804602 23.6743 0.0419208 23.6076 0.0201658C23.5409 -0.00158925 23.4698 -0.00582617 23.401 0.00786347Z" fill="url(#paint1_linear_13_90)"/>
</g>
<defs>
<linearGradient id="paint0_linear_13_90" x1="-0.0424972" y1="-1.06269" x2="21.5474" y2="25.0674" gradientUnits="userSpaceOnUse">
<stop stop-color="#41D1FF"/>
<stop offset="1" stop-color="#BD34FE"/>
</linearGradient>
<linearGradient id="paint1_linear_13_90" x1="15.3699" y1="0.598532" x2="18.746" y2="23.7871" gradientUnits="userSpaceOnUse">
<stop stop-color="#FFEA83"/>
<stop offset="0.083" stop-color="#FFDD35"/>
<stop offset="1" stop-color="#FFA800"/>
</linearGradient>
</defs>
</svg>
