<svg width="37" height="40" viewBox="0 0 37 40" fill="none" xmlns="http://www.w3.org/2000/svg">
<g id="Webpack">
<path d="M35.3821 30.8256L19.1515 40.0002V32.8541L29.2491 27.3017L35.3821 30.8256ZM36.4949 29.8224V10.6509L30.5558 14.0795V26.4002L36.4917 29.8192L36.4949 29.8224ZM1.49653 30.8256L17.7112 39.9938V32.8541L7.61043 27.3017L1.49653 30.8256ZM0.383759 29.8224V10.6509L6.32279 14.0795V26.4002L0.383759 29.8224ZM1.08004 9.40968L17.7271 0.000152588V6.90809L7.0604 12.7652L6.97456 12.8129L1.08004 9.40968ZM35.7922 9.40968L19.1515 0.000152588V6.90809L29.8182 12.7621L29.9041 12.8097L35.7986 9.40968H35.7922Z" fill="#8ED6FB"/>
<path d="M17.7271 31.2287L7.74714 25.7462V14.8954L17.7271 20.6351V31.2287ZM19.1515 31.2287L29.1315 25.7525V14.8954L19.1515 20.6351V31.2287ZM8.42435 13.6509L18.4393 8.14618L28.4543 13.6509L18.4393 19.416L8.42435 13.6509Z" fill="#1C78C0"/>
</g>
</svg>
