<svg width="49" height="33" viewBox="0 0 49 33" fill="none" xmlns="http://www.w3.org/2000/svg">
<g clip-path="url(#clip0_19_269)">
<mask id="mask0_19_269" style="mask-type:luminance" maskUnits="userSpaceOnUse" x="0" y="0" width="49" height="33">
<path d="M0.5 0.5H48.5V32.5H0.5V0.5Z" fill="white"/>
</mask>
<g mask="url(#mask0_19_269)">
<path fill-rule="evenodd" clip-rule="evenodd" d="M0.5 0.5V32.5H48.5V0.5H0.5Z" fill="#2E42A5"/>
<mask id="mask1_19_269" style="mask-type:luminance" maskUnits="userSpaceOnUse" x="0" y="0" width="49" height="33">
<path fill-rule="evenodd" clip-rule="evenodd" d="M0.5 0.5V32.5H48.5V0.5H0.5Z" fill="white"/>
</mask>
<g mask="url(#mask1_19_269)">
<mask id="mask2_19_269" style="mask-type:luminance" maskUnits="userSpaceOnUse" x="0" y="0" width="49" height="33">
<path d="M0.5 0.5H48.5V32.5H0.5V0.5Z" fill="white"/>
</mask>
<g mask="url(#mask2_19_269)">
<path d="M-4.84448 30.2134L5.71852 34.1854L48.7385 4.81736L54.311 -1.08398L43.016 -2.41064L25.469 10.244L11.345 18.772L-4.84448 30.2134Z" fill="white"/>
<path d="M-3.40002 32.996L1.98348 35.3L52.31 -1.63196H44.7545L-3.39852 32.9947L-3.40002 32.996Z" fill="#F50100"/>
<path d="M53.8445 30.2134L43.2815 34.1854L0.261465 4.81736L-5.31104 -1.08398L5.98396 -2.41064L23.531 10.244L37.655 18.772L53.8445 30.2134Z" fill="white"/>
<path d="M53.4845 32.2107L48.1025 34.5147L26.6735 18.7014L20.3195 16.936L-5.84802 -1.06396H1.70898L27.86 16.5094L34.8065 18.6267L53.4845 32.2107Z" fill="#F50100"/>
<path fill-rule="evenodd" clip-rule="evenodd" d="M30.167 -2.16663H18.833V11.1667H-2.45801V21.8334H18.833V35.1667H30.167V21.8334H51.542V11.1667H30.167V-2.16663Z" fill="#F50100"/>
<mask id="mask3_19_269" style="mask-type:luminance" maskUnits="userSpaceOnUse" x="-3" y="-3" width="55" height="39">
<path fill-rule="evenodd" clip-rule="evenodd" d="M30.167 -2.16663H18.833V11.1667H-2.45801V21.8334H18.833V35.1667H30.167V21.8334H51.542V11.1667H30.167V-2.16663Z" fill="white"/>
</mask>
<g mask="url(#mask3_19_269)">
<path d="M18.833 -2.16665V-4.83331H15.833V-2.16665H18.833ZM30.167 -2.16665H33.167V-4.83331H30.167V-2.16665ZM18.833 11.1667V13.8334H21.833V11.1667H18.833ZM-2.45801 11.1667V8.50002H-5.45801V11.1667H-2.45801ZM-2.45801 21.8334H-5.45801V24.5H-2.45801V21.8334ZM18.833 21.8334H21.833V19.1667H18.833V21.8334ZM18.833 35.1667H15.833V37.8334H18.833V35.1667ZM30.167 35.1667V37.8334H33.167V35.1667H30.167ZM30.167 21.8334V19.1667H27.167V21.8334H30.167ZM51.542 21.8334V24.5H54.542V21.8334H51.542ZM51.542 11.1667H54.542V8.50002H51.542V11.1667ZM30.167 11.1667H27.167V13.8334H30.167V11.1667ZM18.833 0.500021H30.167V-4.83331H18.833V0.500021ZM21.833 11.1667V-2.16665H15.833V11.1667H21.833ZM-2.45801 13.8334H18.833V8.50002H-2.45801V13.8334ZM0.541992 21.8334V11.1667H-5.45801V21.8334H0.541992ZM18.833 19.1667H-2.45801V24.5H18.833V19.1667ZM21.833 35.1667V21.8334H15.833V35.1667H21.833ZM30.167 32.5H18.833V37.8334H30.167V32.5ZM27.167 21.8334V35.1667H33.167V21.8334H27.167ZM51.542 19.1667H30.167V24.5H51.542V19.1667ZM48.542 11.1667V21.8334H54.542V11.1667H48.542ZM30.167 13.8334H51.542V8.50002H30.167V13.8334ZM27.167 -2.16665V11.1667H33.167V-2.16665H27.167Z" fill="white"/>
</g>
</g>
</g>
</g>
</g>
<defs>
<clipPath id="clip0_19_269">
<rect x="0.5" y="0.5" width="48" height="32" rx="8" fill="white"/>
</clipPath>
</defs>
</svg>
